<mxfile host="app.diagrams.net" agent="Mozilla/5.0 (Windows NT 10.0; Win64; x64) AppleWebKit/537.36 (KHTML, like Gecko) Chrome/128.0.0.0 Safari/537.36 Edg/128.0.0.0" version="24.7.15" pages="2">
  <diagram name="Pert" id="ff44883e-f642-bcb2-894b-16b3d25a3f0b">
    <mxGraphModel grid="1" page="1" gridSize="10" guides="1" tooltips="1" connect="1" arrows="1" fold="1" pageScale="1.5" pageWidth="1169" pageHeight="826" background="none" math="0" shadow="0">
      <root>
        <mxCell id="0" style=";html=1;" />
        <mxCell id="1" style=";html=1;" parent="0" />
        <mxCell id="arwhIM7CT7ZnuuH5wVLV-29" value="" style="group" connectable="0" vertex="1" parent="1">
          <mxGeometry x="220" y="-250" width="80" height="80" as="geometry" />
        </mxCell>
        <mxCell id="arwhIM7CT7ZnuuH5wVLV-24" value="" style="shape=lineEllipse;perimeter=ellipsePerimeter;whiteSpace=wrap;html=1;backgroundOutline=1;" vertex="1" parent="arwhIM7CT7ZnuuH5wVLV-29">
          <mxGeometry width="80" height="80" as="geometry" />
        </mxCell>
        <mxCell id="arwhIM7CT7ZnuuH5wVLV-25" value="" style="line;strokeWidth=2;direction=south;html=1;noLabel=0;" vertex="1" parent="arwhIM7CT7ZnuuH5wVLV-29">
          <mxGeometry x="35" width="10" height="40" as="geometry" />
        </mxCell>
        <mxCell id="arwhIM7CT7ZnuuH5wVLV-26" value="&lt;font style=&quot;font-size: 12px;&quot;&gt;&lt;b style=&quot;font-size: 12px;&quot;&gt;Text&lt;/b&gt;&lt;/font&gt;" style="text;html=1;align=center;verticalAlign=middle;resizable=0;points=[];autosize=1;strokeColor=none;fillColor=none;fontSize=12;" vertex="1" parent="arwhIM7CT7ZnuuH5wVLV-29">
          <mxGeometry x="30" y="10" width="50" height="30" as="geometry" />
        </mxCell>
        <mxCell id="arwhIM7CT7ZnuuH5wVLV-27" value="&lt;font style=&quot;font-size: 12px;&quot;&gt;Text&lt;/font&gt;" style="text;html=1;align=center;verticalAlign=middle;resizable=0;points=[];autosize=1;strokeColor=none;fillColor=none;labelBackgroundColor=none;fontStyle=1;fontSize=12;" vertex="1" parent="arwhIM7CT7ZnuuH5wVLV-29">
          <mxGeometry x="-5" y="10" width="50" height="30" as="geometry" />
        </mxCell>
        <mxCell id="arwhIM7CT7ZnuuH5wVLV-28" value="&lt;font style=&quot;font-size: 14px;&quot;&gt;Text&lt;/font&gt;" style="text;html=1;align=center;verticalAlign=middle;resizable=0;points=[];autosize=1;strokeColor=none;fillColor=none;fontStyle=1" vertex="1" parent="arwhIM7CT7ZnuuH5wVLV-29">
          <mxGeometry x="15" y="45" width="50" height="30" as="geometry" />
        </mxCell>
        <mxCell id="arwhIM7CT7ZnuuH5wVLV-36" value="" style="group;labelBorderColor=default;textShadow=0;" connectable="0" vertex="1" parent="1">
          <mxGeometry x="110" y="-659" width="80" height="80" as="geometry" />
        </mxCell>
        <mxCell id="arwhIM7CT7ZnuuH5wVLV-31" value="" style="shape=lineEllipse;perimeter=ellipsePerimeter;whiteSpace=wrap;html=1;backgroundOutline=1;movable=1;resizable=1;rotatable=1;deletable=1;editable=1;locked=0;connectable=1;container=0;" vertex="1" parent="arwhIM7CT7ZnuuH5wVLV-36">
          <mxGeometry width="80" height="80" as="geometry" />
        </mxCell>
        <mxCell id="arwhIM7CT7ZnuuH5wVLV-32" value="" style="line;strokeWidth=2;direction=south;html=1;noLabel=0;movable=1;resizable=1;rotatable=1;deletable=1;editable=1;locked=0;connectable=1;container=0;" vertex="1" parent="arwhIM7CT7ZnuuH5wVLV-36">
          <mxGeometry x="35" width="10" height="40" as="geometry" />
        </mxCell>
        <mxCell id="arwhIM7CT7ZnuuH5wVLV-33" value="&lt;font size=&quot;1&quot; style=&quot;&quot;&gt;&lt;b style=&quot;font-size: 12px;&quot;&gt;0&lt;/b&gt;&lt;/font&gt;" style="text;html=1;align=center;verticalAlign=middle;resizable=1;points=[];autosize=1;strokeColor=none;fillColor=none;fontSize=8;movable=1;rotatable=1;deletable=1;editable=1;locked=0;connectable=1;container=0;" vertex="1" parent="arwhIM7CT7ZnuuH5wVLV-36">
          <mxGeometry x="40" y="10" width="30" height="30" as="geometry" />
        </mxCell>
        <mxCell id="arwhIM7CT7ZnuuH5wVLV-34" value="&lt;font style=&quot;font-size: 13px;&quot;&gt;0&lt;/font&gt;" style="text;html=1;align=center;verticalAlign=middle;resizable=1;points=[];autosize=1;strokeColor=none;fillColor=none;labelBackgroundColor=none;fontStyle=1;fontSize=8;movable=1;rotatable=1;deletable=1;editable=1;locked=0;connectable=1;container=0;" vertex="1" parent="arwhIM7CT7ZnuuH5wVLV-36">
          <mxGeometry x="5" y="10" width="30" height="30" as="geometry" />
        </mxCell>
        <mxCell id="arwhIM7CT7ZnuuH5wVLV-35" value="1" style="text;html=1;align=center;verticalAlign=middle;resizable=1;points=[];autosize=1;strokeColor=none;fillColor=none;fontStyle=1;movable=1;rotatable=1;deletable=1;editable=1;locked=0;connectable=1;container=0;" vertex="1" parent="arwhIM7CT7ZnuuH5wVLV-36">
          <mxGeometry x="25" y="45" width="30" height="30" as="geometry" />
        </mxCell>
        <mxCell id="arwhIM7CT7ZnuuH5wVLV-38" value="&lt;img height=&quot;352&quot; width=&quot;445&quot; src=&quot;data:image/png;base64,iVBORw0KGgoAAAANSUhEUgAAAb0AAAFgCAYAAAAvjqe1AAAACXBIWXMAAA7DAAAOwwHHb6hkAAAiHElEQVR4Xu3dwXXi2hKFYWfxAiEPwiAJYnAIREACjBkzZegpQ4ae8nrret8+yEcgsHSuq/hrrW91WxIYW+XaklC33/73v/9dEN/b21t1ORAFPYwWCL0kGBiIjh5GC4ReEgwMREcPowVCLwkGBqKjh9ECoZcEAwPR0cNogdBLgoGB6OhhtEDoJcHAQHT0MFog9JJgYCA6ehgtEHpJMDAQHT2MFgi9isPhcFHtdrvq+kecz+fuudbrdXX9VBgY/50p93GrfvmN6OHf4XQ6dT242Wyq66ObPfT8Q6ya8gf5eDx2z7nf76vra7bbbfcY7dTaevv4+Oi2myL0XITefcvl8uu7dbl8fn5eFotFdbtn6PlU7+/v1fU1Y3vMNcU+dhF6MbivytJ8Uc9M2b9TuTcDFXQqHfjX1mcwa+jpB1flxtAQqW13i3dS/7GE3rUMoafvt8r9ov1V2+4W90X/sYTe7xexh2+Vem61WlUf91+5NwP1mrXuNwb2VGYNPV8m9Dda9eg304NQQVRbPwdC77/hqwJjD05qptx3Y7kIvZ+JHHreX5pvOlvyQdYzPYx5zRp63vFqBO18Ve3oXUffXq/HeGB5gJXl8PNRuLd1lUfy5eUyfexhWgaoXpvDWaW/+7WUg1PLy0u1+nt/sOqozq/ZX4eL0LtN3zuVvvfaJ67akbK+r94X+tP7vFbeR+5F7QdxlQdhvrQz1GMyZh+r7/RYf06Vvq7+WebYftF2fi2q2nMNfU8iyRB6pu+/yz1c66faTPJ26kfPIs/NMXPIM839p+f2a6h9PtFz+HOp9PfyPT09XqXXpuWRe2220PNO1zdJH/ubrW9muZ0HTb/URB4IZfn5vM473I2ine3n7n9ObauqNVit/NzlkOyXG0ONVjZjv/o/FFOLHnq6hKjyD7f3S//SovZvrbSuVn4+l/eDB0L5g93/nP0eG7uP3We1UiA+8lzavgzPsjxsaj9DeozWRZIp9Mp17sF+P0ltJnm7srSdPsdQlXOoDC+Xn7/2+fyzVyu/9lufW+W+jmC20PMA8c4oz7rKb5B/8DXMtMO0To/tD5ByJ4kbww3kH/zyh9073zuu/1zla/Lz6PP6NXmZ6Dl8tCR+7v7nV/m115bNJXroebC7N/y9077wNuX+Kn8YywOpfl+Yy/vB4ale08fqPZf381CPqW7tY71OLffXUj73rcfVlnkg6XXqebRMr8fLah/rsf2flwiyhp77p9ab3nfl/vJ2+pnQ82q/e9+PnUN+rJf1e8Wfr/Yzpc+l7VX++dNzuTyrffanqn39v9UsoadviMs7S7yDyqN319A3rdYU0m8gfR4PTh0BlzvTr6H/XOWO9PNK/7lFjePlZXmbodfpmrspIoeerwqU4VX2kM9ohvZXqbbvxOX9UD6XPpeHxa0AHbuP9Xza1v1elrcZ+1x+DbXya9Xwce/rTw0lB24kWUNPvaWPa71Z64PadvbsHLL++vLnoNyuv3xoO78WB2YEs4SeB8hQlUfvrlrTyNBO9De7bAwfvetP7QSVj3Bk7A7vP/etr8fbDL1O19DXN5XIoef9NlRar+2G9lep1hfiKveDz+i1f31kW/7w9p9r7D6+9fV4m7HP5ddQq/KxCjkdTJbhFy34MoVeOTOGrhxIrQ9q28lP5pD11+t1u8rt+suHtht6rb/ZLKFXO8Ltl5vEP6QaFDpCFv3d672TfFTrH+TaN9tnDHpOvwY1itf3d3h5Nuhhp8/r1+Tn9uMcoHqNfn5vU2tyB6/KX89cooaevpf3SvtD25WXU7y/tA/dG+K+8NUE94ur3A++dOjHqMqg6PfY2H3sx5Wv0eVtxj6XA1S9p++BlvXp9YnXO8zn7rmpZQg97QPtW88QzxrxgZWWaTv1hXul3M7L3Hemj1W35pB7SJ/fr0l/+jF+Dn++2s+Untev1T9beg6XPrah1/qbTR565Q94OUDMP5A+evdO6Jd3WDkcVN5ZQ99sN5vKw9Lr+jtc/Dxl+Tn83OUw6pe30ecpP7fLy/z1zCVq6Hn/lmf/VvaSttOy2v5S+TH9syzvH1e5H8ofeFXZF9LvsbH72AOjVt5m7HPpz6Hy69Kftar9/P1mkUOvVuppH9BIf5aVVZtJ3r/2kznk53ev1D5fre69tTD0Wn+zyUPPO6b8ppb8TdeOKZc5DPVn/xtYDjKv82Dpb+ujd5WD1WqvTU1SDik9xmeM5XOXl4509OPPU26jBveRl7bVOlF5iM0laugN7UfzD5W208faX9pH5b7wD6aUR8/axuu8fX8/eH+pHKxWe21j9nG/p/R3f1x+/rH9or+Xz+fykbmep1zf/55EEbGH3Vdlqf+0H9UH/e3LOaLttO/8d2/jfannKB8rY+dQ2Q/6u5Zp3dAM1OM9g1V6TL9XXV4m/llzL0Ywy+VNtBc19ACjh9ECoZcEAwPR0cNogdBLgoGB6OhhtEDoJcHAQHT0MFog9JJgYCA6ehgtEHpJMDAQHT2MFgi9JBgYiI4eRguEXhIMDERHD6MFQi8JBgaio4fRAqGXBAMD0dHDaIHQS4KBgejoYbRA6CXBwEB09DBaIPSSYGC04/8tv/xPe/Fz9DBaIPSSYGC049+EQOhNix5GC4ReEgyMduYOPf8aF/0Kmdr6rOhhtEDoJcHAaGfu0NPvMXPV1mdFD6MFQi+JSAPDZzL6RZX6ZaflLxAuf5FruZ2Dpjz70WPLXwJb/rLM8jm03KVfQFv+cs/yl2fqufvrvU35iz/9fP3Qu/d6/As89Xz95/R2/jr75efofz21Xxhbfk36M8ovlCX00AKhl0SkgeEzGQ/9fvk3NpdnPGVpnQZ5rfSc+u3p2kYBUfscCgWt92+d7peCROvFQVWrMvTGvJ6hQFMpnIa20XNonZ5n6HvmYPNNNmX58b8doYcWCL0kIoaeSkNeZ1blQNfZVn87n4E5QHxG5QDTOp8BKai0TI9RaVs9Tttoe39Ol0NW2/gMyWde/ljP7c+vsFOVoTfm9Widy8vKUPVzlV+3l4lD2q9Fy/ycWlb7WM/VPyP9rQg9tEDoJRE19MrlHuoe0kPbya3S82gbh5ODqFQ+d6185uTS9n6sg6UMk1vl11N7XPlYB+3Q1+2vp1Y+Oy3PbvWngt8HCr8doYcWCL0kMoSez8x+GnoOuZ+EnkPO5Y/l0dDz578Xev4cQ1/3rdArn1Mhp6Atwy9C8BF6aIHQSyJq6CkIdKmuPEPxmdHQ8BdfdqwFmvnyoi9vapkuJ+ox+thVBlpfeXlTH+txvpRZBs2Y1/NM6PmSqpb7oKC8vNmnzyFe79d162v8LQg9tEDoJRE19GrlIV9u138OB0itauFRloPp1pnTrc/jcC7Da8zr8Tb3Qq8MZJeWD309Kn9NQ6/D39PfjNBDC4ReElFDT++d+WxEZ1Ae/KKzP1f5eNOdij7rKsvvjYme39v4PS6fBelPhYQ/v0vb+fFSXipUYPl19cPr3uvxTStDoVe+bm1bC1d9f3wGW5ZvjNFzlOv1evz+5G9H6KEFQi+JqKFXW4/XROihBUIvCUIP0RF6aIHQSyLSwPDlQVVtPV4ToYcWCL0kGBiIjh5GC4ReEgwMREcPowVCLwkGBqKjh9ECoZcEAwPR0cNo4U+fvXXNBgBAerUkRDzambXlQBT0MFog9JJgYCA6ehgtEHpJMDAQHT2MFgi9JBgYiI4eRguEXhIMDERHD6MFQi8JBgaio4fRAqGXBAMD0dHDaIHQS4KBgejoYbRA6CXBwEB09DBaIPSSYGAgOnoYLaQNvcPh8PUb2y6X3W5X3SYTBgaio4cfdzwev6bcpZt5tW1wLWXoLRaLy+fnZ0elP2vbZcLAQHT08GPe39+7+eb6+PiobodrKUNvs9l0TbDf7y/n87n7uxqktm0WDAxERw8/xrPNV7UIvXFShp5P+RV0Cj6VltW2zYKBgejo4fH0lo1K881/J/TGSRd6urSp8iXN1WrVfazSuv72WTAwEB09PM5yufz37RvNNELvMelCb7vddg1QvqnrywC67FlumwkDY1rlwZJLy8obB1TZryC0RA+P4x7UrNPHhN5j0oXe6XTqGqB8D8+XOLWu3DYTBsa0CL326OH73Jc6kPcyQu8xqUJPp/33StvUHhsdAwPR0cP3OeCG6hXuVP+pVKHnM7pbpaapPTY6Bgaio4fv89s3Q0Xo3Zcq9G69d+fbesvLApkwMBAdPfwcLm8+Jk3o+Vq372jqr1+v1916lbbtr4+OgYHo6OHnOPR4f3mcdDeyvCoGBqKjh9ECoZcEAwPR0cNogdBLgoGB6OhhtEDoJcHAQHT0MFog9JJgYCA6ehgtEHpJMDAQHT2MFgi9JBgYiI4eRgt/+uytazYAANKrJSHi0c6sLQeioIfRAqGXBAMD0dHDaIHQS4KBgejoYbRA6CXBwEB09DBaIPSSYGAgOnoYLRB6STAwEB09jBYIvSQYGIiOHkYLhF4SDAxERw+jBUIvCQYGoqOH0QKhlwQDA9HRw2ghXeh9fn52vzq/rI+Pj8v7+3t1+ywYGPM6HA5f3XS57Ha76jb4GXp42HK5vByPx67/NONq28hisbicz+duO9Vms6lu98rShd6tWq1W1cdkwMCYjwaJBo0PqG4NHTyPHq7TQVa/atvJfr//2uKf4gDtu7Sht16vu491hOTK3AAMjPnoaFmlgeKj6OxXDv4L9HCdSr1XBlptO8869aiubqkIve/Sh57O7lyc6eEZvqykoPPg0bLatngePXxbecZXW++gU58SesNe5vLmdrutbp8FA2MeurSp8iXN8iBK6/rb43n08G23Qk9Bp1LY6WNCb9hLvaeX+U1dBsY8dLCk0o0sXuZLnNwkMC16+Lah0CtvXvHVLEJvWPrLm2oI33mX+QYEBsY8TqdT1zvle3i+xKl15bb4GXr4tqHQqx2YEXrD0oee6O+ucttMGBjTK2+CGiptU3ssHkcP3zYUeg64oeL952uc6SXBwJheebfcUHEkPR16+Lah0PONVkNF6F17qff0Mg8oBsb0br135wMpbdNfh+fQw3W3zuRq2wuXN4elCz3/A+Ky1ADZbzpgYEzLd2mqn2p3aZaXzDP/U5iW6OG6n4Re9rvWn5Eu9F4VAwPR0cNogdBLgoGB6OhhtEDoJcHAQHT0MFog9JJgYCA6ehgtEHpJMDAQHT2MFgi9JBgYiI4eRguEXhIMDERHD6MFQi8JBgaio4fRwp8+e+uaDQCA9GpJiHi0M2vLgSjoYbRA6CXBwEB09DBaIPSSYGAgOnoYLRB6STAwEB09jBYIvSQYGIiOHkYLhF4SDAxERw+jBUIvCQYGoqOH0QKhlwQDA9HRw2iB0EuCgYHo6GG0QOglwcBAdPQwWkgbepvN5vLx8XFxnU6ny263q26bAQNjXofD4auTLqn76L9ED4+nHtRMc+nv2+22ui2upQy9ckD1a71eVx8THQNjPovF4vL5+dlR6c/advgZengcBd5Qvb+/Vx+Dv9KFns7wXAq/5XLZLV+tVt2ZH6GHR7mn9vv95Xw+d39nuEyPHh7HV7DUj/pYB2XuS65C3Jcu9NwQOt2vrc+KgTGf4/HY9ZSCToNGpWW1bfE8engcz7gy4HypUwdo5bb4Ll3ouV7tiIeBMQ8dRat8SVNXDFxa198ez6OHx1EP+lK7AtCBpytbte1xjdBLgoExD90coCoHii8lcVQ9LXp4vPJtHJVCMOtbN1Mj9JJgYMzDR9Hle3i+xPlql9DnRg+P48DTwZf+Xt64x3vN96ULPR+F67S/tj4rBsb0dBPUvfKNUvg5evg+X25Xlb3nA7FXm3vPSBd6OsNz9e/e1M0H3L2JsTxIbtWrXVGYEz18n+aXy/8uT0Hom60IvfvShZ4awJekakXoYaxb7935kpK26a/Dc+jhcdyXteIg7L50oScKPu38Mvz098wNwcCYlu/S1A0Ctbs0yyNubdtfj8fRw+Po6pUOunwHp0rzjRurxkkZeq+IgYHo6GG0QOglwcBAdPQwWiD0kmBgIDp6GC0QekkwMBAdPYwWCL0kGBiIjh5GC4ReEgwMREcPowVCLwkGBqKjh9HCnz5765oNAID0akmIeLQza8uBKOhhtEDoJcHAQHT0MFog9JJgYCA6ehgtEHpJMDAQHT2MFgi9JBgYiI4eRguEXhIMDERHD6MFQi8JBgaio4fRAqGXBAMD0dHDaIHQS4KBgejoYbRA6CXBwEB09DBaSBV62+3265fn/y39Sv3j8Xh5f3+vPiYLBsa8DofDV0ddLrvdrroNfoYeHrZcLrs5ptJMq22jvjyfz902KvXsYrGobvvKUoWedvqtUhPUHpcBA2M+GhwaNKIaGjr4GXq4rjbX+tvs9/uvNdd1Op2+bfvqUobex8fHv8tWq9W/R0iqrGd8DIz5bDabrnc0WHwknf3KwX+BHq5TqffKYCvX66DM5asQ6k8XvXotfeiZjnhUCsD+ugwYGPPxQZOGhwdP1j76L9HDt5VnfOXyMuDK5T5AcxDiHy8Tel6X9dIUA2MePop23+jKgYv3S6ZFD982FHpDc08fqwi9ay8Xeqr+ugwYGPPwzVHl+8E+gtZlz3Jb/Aw9fBuhN42XCz0NrP66DBgY8/Bl8fJ9EV/i5CaBadHDtxF603iZ0PPROe/pYSzdJn6vtE3tsXgcPXzbUOj5RitVudwHbITetfSh1797c71eXz0mCwbG9Mq75YaKgTIdevi2odArD850OV7LyiDUDCy3f3UpQ2+oNMRqj8uAgTG9W+/d+R+rZ71c/l+gh+t8mbJW97bhLuPvUoVe7X9k0VDSjs96hmcMjGn5Lk3dtVm7S1P95OJIehr0cN2Y0FOP6kCs/A8UdJDPHcbfpQq9V8bAQHT0MFog9JJgYCA6ehgtEHpJMDAQHT2MFgi9JBgYiI4eRguEXhIMDERHD6MFQi8JBgaio4fRAqGXBAMD0dHDaIHQS4KBgejoYbTwp8/eumYDACC9WhIiHu3M2nIgCnoYLRB6STAwEB09jBYIvSQYGIiOHkYLhF4SDAxERw+jBUIvCQYGoqOH0QKhlwQDA9HRw2iB0EuCgYHo6GG0QOglwcBAdPQwWiD0kmBgIDp6GC0QekkwMBAdPYwW0oXearW6DNV2u60+JgMGxvM+Pz+/OuRvfXx8XN7f36vb9y2Xy8vhcLicz+fusXq+4/HY9WJte9TRw+MsFovLbrf7t99U9Nt46UJvvV5/tcH3IvRQc6vuDRKtr4WmSsFZewzq6OFxFHC1Uh/Wtse11KFXW58VA+N5LvWOPtaZm0tH1P3tS+XZnc8MdSSuAywNp/72GEYPj6O+Ul+qz/Txfr/velDV3xbfEXpJMDCe53LolZfIb53plb029lIohtHDj1Pw6dK6SgdgtW1w7WUub2a/1MTAeN5Q3bscrqNtV209HkMPj9e/pK75pisUtW1xjdBLgoHxvFu12WyqjxFCb1r08Hi195G5nD4OlzeTYGA8z+XLm+Ulo1s3BxB606KHH+c7h12Zb9abCqGXBAPjeS6HnozpI50FusrH4jn08HN0kOa6d+MVCL00GBjPczm4hs70fJecj6a1nS8z6c/y7k0FIpebHkMPj6MbVnzZXb1WXnHgTO++l3lPT5W5IRgYz7tV5ZGz3hfuLyvP9vrFv9N7DD08Tu39PJXCUCFYewz+Shd65e3m/SL0UFMbIgqs/k0sp9OpW9e/lKmPdVZXnvXp43v/sB3X6OFx1FdlvynsdGWCwBsnXei9KgbGvHwFgUuW86GH0QKhlwQDY14KOy4fzYseRguEXhIMDERHD6MFQi8JBgaio4fRAqGXBAMD0dHDaIHQS4KBgejoYbRA6CXBwEB09DBaIPSSYGAgOnoYLRB6STAwEB09jBYIvSQYGIiOHkYLhF4SDAxERw+jBUIvCQYGoqOH0cJb9x8KUuFLA4OiIhc9TLWoP3321jUbAADp1U7/EI92Zm05EAU9jBYIvSQYGIiOHkYLhF4SDAxERw+jBUIvCQYGoqOH0QKhlwQDA9HRw2iB0EuCgYHo6GG0QOglwcBAdPQwWiD0kmBgIDp6GC0QekkwMBAdPYwWCL0kGBiIjh5GCylD7/Pz8+t/Wbuu9Xpd3T4DBsY8VqvVV/d8r+12W30MnkMPjzM031TH47H6GPyVMvSGitDDo9QzQ0XoTYseHofQ+5nUoZc55PoYGPMoQ6+2HtOhh5+zWCz+DcLNZlPdBn8RekkwMOZB6LVDDz9nt9t1/Xk+n6vrcY3QS4KBMY8y9Mr6+Piobo/n0cOPK8/yFH61bXDtpd7TWy6X1e0zYGDMg9Brhx5+nM/yFHwKwNo2uEboJcHAmAeXN9uhhx/ns7z9fl9dj++4vJkEA2MehF479PBjdNOKK/MB/dQIvSQYGPMg9Nqhhx+jG1dUh8Ohuh51hF4SDIx5lKHXL/6d3rTo4fHKs7xXmnNTSBl6vs5N6OGn+B9Z2qGHxzudTl0PckPV41KG3itiYCA6ehgtEHpJMDAQHT2MFgi9JBgYiI4eRguEXhIMDERHD6MFQi8JBgaio4fRAqGXBAMD0dHDaIHQS4KBgejoYbTwp8/eumYDACC9WhIiHu3M2nIgCnoYLRB6STAwEB09jBYIvSQYGIiOHkYLhF4SDAxERw+jBUIvCQYGoqOH0QKhlwQDA9HRw2iB0EuCgYHo6GG0QOglwcBAdPQwWiD0kmBgIDp6GC0QekkwMBAdPYwWUobeZrO5HI/H7tfpu/Rr9Xe73WWxWFQfEx0DYz6fn59fXXRd6/W6uj2eQw+PoxmmWXY+n7868dLNu9VqVd0e19KFXj/s+pV1UDEw5jNUhN606OFxhmacDs5q2+NaqtDb7/dfu//SHQktl8tuuY6M3t/fu7M9Qg+PchFy86KHx1HolVetyrnX3xbfpQk9NYBLDVHbJjMGxnxchN686OHHae4dDoeuP3W5s7YNrqUJPQ0kl4+AXgkDYz4uQm9e9PB4/feZdRXLV7ZwW8rQ87Ltdvu15G9lfbOXgTGfoWLITIseHq92c5Uue9a2xbXUZ3q10Mt6tM7AmM9QEXrToocfpx705U2VZl5tO/yVJvS08121He8i9PAoF5c350UPP+fV72d4VJrQk/KIp7x7swxEQg+PchF686KHx9ENK/q3yPq7Ak+zzsWZ3n2pQk8NcDqdvnZ/vQg9PMpF6M2LHh5n6D9LUBi+4k18j0oVeqajHd3NVJY+1r9nydoUDIz5eMgQevOih8fRzXi6acV9qbDTVS4Cb5yUofeKGBiIjh5GC4ReEgwMREcPowVCLwkGBqKjh9ECoZcEAwPR0cNogdBLgoGB6OhhtEDoJcHAQHT0MFog9JJgYCA6ehgt/Omzt67ZAABIr5aEiEc7s7YciIIeRguEXhIMDERHD6MFQi8JBgaio4fRAqGXBAMD0dHDaIHQS4KBgejoYbRA6CXBwEB09DBaIPSSYGAgOnoYLRB6STAwEB09jBYIvSQYGIiOHkYLhF4SDAxERw+jhVSht91uu1+f//Hx8W2df7W+tumvy4CBMZ/NZnM5Ho9d/7jUY7vd7rJYLKqPwePo4ceo/87n81dHXroepR/vSxV6agJVLfRc2qa/LgMGxjz6Ydev9XpdfRweRw+PdzqdvjrwuujH+wi9JBgY09vv919d80/fLJfLbrmOpt/f37s+Y8hMhx4eR1ceVLp6pT70cvUiZ3r3EXpJMDCmpeHhytozvw09PI7mmyrrWzVzSxl6t4rQwxg6anZx9NwGPTyO70/QpXe/p6dlujJR2x7XCL0kGBjTKkPPy3yjVFmr1erqcXgePTzOreKqxH1c3kyCgTGt2pleLfR4T2869PA4Ls0y96ZvuKrNPlwj9JJgYExLN624au+duAi96dDD4/jypm5o8bJbsw/XCL0kGBjTOxwOX13zT9/47s0yEAm96dDD45RndTrTE/1dpXW1x+AvQi8JBsb0NEyG/j2Ui9CbDj08jv6ZQq10Bsh7zPelCj2/51ILPV8SyHqbLwNjPuoZH0m79LHulvN7Kvg5eng8BV95QKYzPAJvnFSh98oYGIiOHkYLhF4SDAxERw+jBUIvCQYGoqOH0QKhlwQDA9HRw2iB0EuCgYHo6GG0QOglwcBAdPQwWiD0kmBgIDp6GC386bO3rtkAAEivloSIRzuzthyIgh5GC4ReEgwMREcPowVCLwkGBqKjh9ECoZcEAwPR0cNogdBLgoGB6OhhtEDoJcHAQHT0MFog9JJgYCA6ehgtEHpJMDAQHT2MFgi9JBgYiI4eRguEXhIMDERHD6OF1KH3+fnZ/Sr99XpdXZ8JA2N62+2265+Pj49v69xb2qa/Ds+hh4ctFovLbrfrek61Wq2+bfP+/n45nU5fW/zTt7XtXl3q0HMReniGh0wt9Fzapr8Oz6GH6xRmPshy9WeatqmVHrdcLq+2fXWEXhIMjOkRem3Rw3XqP9lsNl9d932m+QzveDx2Z4UKOgflfr+/2vbVEXpJMDCmR+i1RQ/fpjnmKmeaQs5VLj8cDt2yWv++MkIvCQbG9Bx6t4rQmw49fNtQ6JXLy+1vHbS9MkIvCQbG9Ai9tujh2wi9aRB6STAwpndraLgIvenQw7cRetMg9JJgYEyP0GuLHr5tKPR004qrXK4bWFSE3jVCLwkGxvQIvbbo4duGQk/O53O3XHdv6mP9+zz+LWkdoZcEA2N6hF5b9HCd+7BWnm1D2ygMdXdn/zlfWerQ85EOoYdn8D+ytEUP140JPW/nMz6Vzvr4h+nfpQ69V8LAQHT0MFog9JJgYCA6ehgtEHpJMDAQHT2MFgi9JBgYiI4eRguEXhIMDERHD6MFQi8JBgaio4fRAqGXBAMD0dHDaIHQS4KBgejoYbRA6CXBwEB09DBa+NNnb12zAQCQXi0JEY92Zm05EAU9jBYIvSQYGIiOHkYLhF4SDAxERw+jBUIvCQYGoqOH0QKhlwQDA9HRw2iB0EuCgYHo6GG0QOglwcBAdPQwWiD0kmBgIDp6GC0QekkwMBAdPYwWCL0kGBiIjh5GC6lDb7fbXVTH47G6PhMGxnw2m03XQ2V9fHx0/bVYLKqPwePo4fHUe+fz+asb/5lxq9Wqui2uvUToaUDV1mfCwJhHP+z6tV6vq4/D4+jhcfb7/Vf3Xdfn5ycHYSMQekkwMKZXDhf10nK57JZrsLy/v3d9RehNhx4ex6We1Mc6w3PpqkR/e1wj9JJgYExLwebycMG86OH7dJDlKpdrxql0oFYux3eEXhIMjGmVw4VLRm3Qw/fpaoNru93+u+x0OnXLXmHW/RShlwQDY1q1I2oNmX5x88B06OFxyhtY+kXo3UfoJcHAmFbtTK8WerynNx16eBwdaJU3WOksTzNOxeXN+wi9JBgY06pdRiq5CL3p0MPP8+XNWq/iWurQ89EPoYdnHA6Hrn9UOoDy3ZtlIBJ606GHx1HP+bK6rkL44J5/sjBOytDTzi/rFY5+GBjT0wDxEfRQEXrToYfH8cF8v/jnCuOkDz0drb/C0Q8DYz46aOoPGn2s9084sp4OPTyOwq3/v7Ho343WtsV3qS9vvhIGBqKjh9ECoZcEAwPR0cNogdBLgoGB6OhhtEDoJcHAQHT0MFog9JJgYCA6ehgtEHpJMDAQHT2MFgi9JBgYiI4exvz+d/k/6W0krjcrhdAAAAAASUVORK5CYII=&quot;&gt;" style="text;html=1;align=center;verticalAlign=middle;resizable=0;points=[];autosize=1;strokeColor=none;fillColor=none;" vertex="1" parent="1">
          <mxGeometry x="10" y="-1230" width="470" height="370" as="geometry" />
        </mxCell>
        <mxCell id="arwhIM7CT7ZnuuH5wVLV-39" value="" style="group" connectable="0" vertex="1" parent="1">
          <mxGeometry x="640" y="-830" width="80" height="80" as="geometry" />
        </mxCell>
        <mxCell id="arwhIM7CT7ZnuuH5wVLV-40" value="" style="shape=lineEllipse;perimeter=ellipsePerimeter;whiteSpace=wrap;html=1;backgroundOutline=1;movable=1;resizable=1;rotatable=1;deletable=1;editable=1;locked=0;connectable=1;container=0;" vertex="1" parent="arwhIM7CT7ZnuuH5wVLV-39">
          <mxGeometry width="80" height="80" as="geometry" />
        </mxCell>
        <mxCell id="arwhIM7CT7ZnuuH5wVLV-41" value="" style="line;strokeWidth=2;direction=south;html=1;noLabel=0;movable=1;resizable=1;rotatable=1;deletable=1;editable=1;locked=0;connectable=1;container=0;" vertex="1" parent="arwhIM7CT7ZnuuH5wVLV-39">
          <mxGeometry x="35" width="10" height="40" as="geometry" />
        </mxCell>
        <mxCell id="arwhIM7CT7ZnuuH5wVLV-42" value="&lt;font size=&quot;1&quot; style=&quot;&quot;&gt;&lt;b style=&quot;font-size: 12px;&quot;&gt;18&lt;/b&gt;&lt;/font&gt;" style="text;html=1;align=center;verticalAlign=middle;resizable=1;points=[];autosize=1;strokeColor=none;fillColor=none;fontSize=8;movable=1;rotatable=1;deletable=1;editable=1;locked=0;connectable=1;container=0;" vertex="1" parent="arwhIM7CT7ZnuuH5wVLV-39">
          <mxGeometry x="35" y="10" width="40" height="30" as="geometry" />
        </mxCell>
        <mxCell id="arwhIM7CT7ZnuuH5wVLV-43" value="18" style="text;html=1;align=center;verticalAlign=middle;resizable=1;points=[];autosize=1;strokeColor=none;fillColor=none;labelBackgroundColor=none;fontStyle=1;fontSize=12;movable=1;rotatable=1;deletable=1;editable=1;locked=0;connectable=1;container=0;" vertex="1" parent="arwhIM7CT7ZnuuH5wVLV-39">
          <mxGeometry y="10" width="40" height="30" as="geometry" />
        </mxCell>
        <mxCell id="arwhIM7CT7ZnuuH5wVLV-44" value="3" style="text;html=1;align=center;verticalAlign=middle;resizable=1;points=[];autosize=1;strokeColor=none;fillColor=none;fontStyle=1;movable=1;rotatable=1;deletable=1;editable=1;locked=0;connectable=1;container=0;" vertex="1" parent="arwhIM7CT7ZnuuH5wVLV-39">
          <mxGeometry x="25" y="45" width="30" height="30" as="geometry" />
        </mxCell>
        <mxCell id="arwhIM7CT7ZnuuH5wVLV-53" value="" style="group" connectable="0" vertex="1" parent="1">
          <mxGeometry x="410" y="-659" width="80" height="80" as="geometry" />
        </mxCell>
        <mxCell id="arwhIM7CT7ZnuuH5wVLV-54" value="" style="shape=lineEllipse;perimeter=ellipsePerimeter;whiteSpace=wrap;html=1;backgroundOutline=1;movable=1;resizable=1;rotatable=1;deletable=1;editable=1;locked=0;connectable=1;container=0;" vertex="1" parent="arwhIM7CT7ZnuuH5wVLV-53">
          <mxGeometry width="80" height="80" as="geometry" />
        </mxCell>
        <mxCell id="arwhIM7CT7ZnuuH5wVLV-55" value="" style="line;strokeWidth=2;direction=south;html=1;noLabel=0;movable=1;resizable=1;rotatable=1;deletable=1;editable=1;locked=0;connectable=1;container=0;" vertex="1" parent="arwhIM7CT7ZnuuH5wVLV-53">
          <mxGeometry x="35" width="10" height="40" as="geometry" />
        </mxCell>
        <mxCell id="arwhIM7CT7ZnuuH5wVLV-56" value="&lt;font size=&quot;1&quot; style=&quot;&quot;&gt;&lt;b style=&quot;font-size: 13px;&quot;&gt;4&lt;/b&gt;&lt;/font&gt;" style="text;html=1;align=center;verticalAlign=middle;resizable=1;points=[];autosize=1;strokeColor=none;fillColor=none;fontSize=8;movable=1;rotatable=1;deletable=1;editable=1;locked=0;connectable=1;container=0;" vertex="1" parent="arwhIM7CT7ZnuuH5wVLV-53">
          <mxGeometry x="40" y="10" width="30" height="30" as="geometry" />
        </mxCell>
        <mxCell id="arwhIM7CT7ZnuuH5wVLV-57" value="&lt;font style=&quot;font-size: 12px;&quot;&gt;4&lt;/font&gt;" style="text;html=1;align=center;verticalAlign=middle;resizable=1;points=[];autosize=1;strokeColor=none;fillColor=none;labelBackgroundColor=none;fontStyle=1;fontSize=8;movable=1;rotatable=1;deletable=1;editable=1;locked=0;connectable=1;container=0;" vertex="1" parent="arwhIM7CT7ZnuuH5wVLV-53">
          <mxGeometry x="5" y="10" width="30" height="30" as="geometry" />
        </mxCell>
        <mxCell id="arwhIM7CT7ZnuuH5wVLV-58" value="2" style="text;html=1;align=center;verticalAlign=middle;resizable=1;points=[];autosize=1;strokeColor=none;fillColor=none;fontStyle=1;movable=1;rotatable=1;deletable=1;editable=1;locked=0;connectable=1;container=0;" vertex="1" parent="arwhIM7CT7ZnuuH5wVLV-53">
          <mxGeometry x="25" y="45" width="30" height="30" as="geometry" />
        </mxCell>
        <mxCell id="arwhIM7CT7ZnuuH5wVLV-66" value="" style="group" connectable="0" vertex="1" parent="1">
          <mxGeometry x="190" y="-619" width="220" height="30" as="geometry" />
        </mxCell>
        <mxCell id="arwhIM7CT7ZnuuH5wVLV-63" style="edgeStyle=none;curved=1;html=1;startSize=10;endFill=1;endSize=10;strokeWidth=2;fontSize=12;" edge="1" parent="arwhIM7CT7ZnuuH5wVLV-66">
          <mxGeometry relative="1" as="geometry">
            <mxPoint as="sourcePoint" />
            <mxPoint x="220" as="targetPoint" />
          </mxGeometry>
        </mxCell>
        <mxCell id="arwhIM7CT7ZnuuH5wVLV-64" value="4" style="text;html=1;resizable=0;points=[];align=center;verticalAlign=middle;labelBackgroundColor=#ffffff;fontSize=20;" connectable="0" vertex="1" parent="arwhIM7CT7ZnuuH5wVLV-63">
          <mxGeometry x="0.1545" relative="1" as="geometry">
            <mxPoint x="3" y="-20" as="offset" />
          </mxGeometry>
        </mxCell>
        <mxCell id="arwhIM7CT7ZnuuH5wVLV-65" value="A" style="text;html=1;strokeColor=none;fillColor=none;align=center;verticalAlign=middle;whiteSpace=wrap;rounded=0;shadow=1;labelBackgroundColor=none;fontSize=20;" vertex="1" parent="arwhIM7CT7ZnuuH5wVLV-66">
          <mxGeometry x="90" y="10" width="40" height="20" as="geometry" />
        </mxCell>
        <mxCell id="arwhIM7CT7ZnuuH5wVLV-86" value="" style="group" connectable="0" vertex="1" parent="1">
          <mxGeometry x="490" y="-770" width="150" height="150.02" as="geometry" />
        </mxCell>
        <mxCell id="f0bcc99304e6f5a-11" style="edgeStyle=none;curved=1;html=1;startSize=10;endFill=1;endSize=10;strokeWidth=2;fontSize=12;" edge="1" parent="arwhIM7CT7ZnuuH5wVLV-86">
          <mxGeometry relative="1" as="geometry">
            <mxPoint y="150.02" as="sourcePoint" />
            <mxPoint x="150" as="targetPoint" />
          </mxGeometry>
        </mxCell>
        <mxCell id="f0bcc99304e6f5a-24" value="14" style="text;html=1;resizable=0;points=[];align=center;verticalAlign=middle;labelBackgroundColor=#ffffff;fontSize=20;" vertex="1" connectable="0" parent="f0bcc99304e6f5a-11">
          <mxGeometry x="0.1672" y="-3" relative="1" as="geometry">
            <mxPoint x="-51" y="4" as="offset" />
          </mxGeometry>
        </mxCell>
        <mxCell id="f0bcc99304e6f5a-31" value="B" style="text;html=1;strokeColor=none;fillColor=none;align=center;verticalAlign=middle;whiteSpace=wrap;rounded=0;shadow=1;labelBackgroundColor=none;fontSize=20;" vertex="1" parent="arwhIM7CT7ZnuuH5wVLV-86">
          <mxGeometry x="82.744827541358" y="66.23898642515525" width="20.685368379963528" height="11.673938071963649" as="geometry" />
        </mxCell>
        <mxCell id="arwhIM7CT7ZnuuH5wVLV-87" value="" style="group" connectable="0" vertex="1" parent="1">
          <mxGeometry x="640" y="-659" width="80" height="80" as="geometry" />
        </mxCell>
        <mxCell id="arwhIM7CT7ZnuuH5wVLV-88" value="" style="shape=lineEllipse;perimeter=ellipsePerimeter;whiteSpace=wrap;html=1;backgroundOutline=1;movable=1;resizable=1;rotatable=1;deletable=1;editable=1;locked=0;connectable=1;container=0;" vertex="1" parent="arwhIM7CT7ZnuuH5wVLV-87">
          <mxGeometry width="80" height="80" as="geometry" />
        </mxCell>
        <mxCell id="arwhIM7CT7ZnuuH5wVLV-89" value="" style="line;strokeWidth=2;direction=south;html=1;noLabel=0;movable=1;resizable=1;rotatable=1;deletable=1;editable=1;locked=0;connectable=1;container=0;" vertex="1" parent="arwhIM7CT7ZnuuH5wVLV-87">
          <mxGeometry x="35" width="10" height="40" as="geometry" />
        </mxCell>
        <mxCell id="arwhIM7CT7ZnuuH5wVLV-90" value="&lt;font size=&quot;1&quot; style=&quot;&quot;&gt;&lt;b style=&quot;font-size: 13px;&quot;&gt;18&lt;/b&gt;&lt;/font&gt;" style="text;html=1;align=center;verticalAlign=middle;resizable=1;points=[];autosize=1;strokeColor=none;fillColor=none;fontSize=8;movable=1;rotatable=1;deletable=1;editable=1;locked=0;connectable=1;container=0;" vertex="1" parent="arwhIM7CT7ZnuuH5wVLV-87">
          <mxGeometry x="35" y="10" width="40" height="30" as="geometry" />
        </mxCell>
        <mxCell id="arwhIM7CT7ZnuuH5wVLV-91" value="&lt;font style=&quot;font-size: 11px;&quot;&gt;12&lt;/font&gt;" style="text;html=1;align=center;verticalAlign=middle;resizable=1;points=[];autosize=1;strokeColor=none;fillColor=none;labelBackgroundColor=none;fontStyle=1;fontSize=8;movable=1;rotatable=1;deletable=1;editable=1;locked=0;connectable=1;container=0;" vertex="1" parent="arwhIM7CT7ZnuuH5wVLV-87">
          <mxGeometry y="10" width="40" height="30" as="geometry" />
        </mxCell>
        <mxCell id="arwhIM7CT7ZnuuH5wVLV-92" value="4" style="text;html=1;align=center;verticalAlign=middle;resizable=1;points=[];autosize=1;strokeColor=none;fillColor=none;fontStyle=1;movable=1;rotatable=1;deletable=1;editable=1;locked=0;connectable=1;container=0;" vertex="1" parent="arwhIM7CT7ZnuuH5wVLV-87">
          <mxGeometry x="25" y="45" width="30" height="30" as="geometry" />
        </mxCell>
        <mxCell id="arwhIM7CT7ZnuuH5wVLV-93" value="" style="group" connectable="0" vertex="1" parent="1">
          <mxGeometry x="1460" y="-150" width="80" height="80" as="geometry" />
        </mxCell>
        <mxCell id="arwhIM7CT7ZnuuH5wVLV-94" value="" style="shape=lineEllipse;perimeter=ellipsePerimeter;whiteSpace=wrap;html=1;backgroundOutline=1;movable=1;resizable=1;rotatable=1;deletable=1;editable=1;locked=0;connectable=1;container=0;" vertex="1" parent="arwhIM7CT7ZnuuH5wVLV-93">
          <mxGeometry width="80" height="80" as="geometry" />
        </mxCell>
        <mxCell id="arwhIM7CT7ZnuuH5wVLV-95" value="" style="line;strokeWidth=2;direction=south;html=1;noLabel=0;movable=1;resizable=1;rotatable=1;deletable=1;editable=1;locked=0;connectable=1;container=0;" vertex="1" parent="arwhIM7CT7ZnuuH5wVLV-93">
          <mxGeometry x="35" width="10" height="40" as="geometry" />
        </mxCell>
        <mxCell id="arwhIM7CT7ZnuuH5wVLV-96" value="&lt;font size=&quot;1&quot; style=&quot;&quot;&gt;&lt;b style=&quot;font-size: 12px;&quot;&gt;47&lt;/b&gt;&lt;/font&gt;" style="text;html=1;align=center;verticalAlign=middle;resizable=1;points=[];autosize=1;strokeColor=none;fillColor=none;fontSize=8;movable=1;rotatable=1;deletable=1;editable=1;locked=0;connectable=1;container=0;" vertex="1" parent="arwhIM7CT7ZnuuH5wVLV-93">
          <mxGeometry x="35" y="10" width="40" height="30" as="geometry" />
        </mxCell>
        <mxCell id="arwhIM7CT7ZnuuH5wVLV-97" value="&lt;font style=&quot;font-size: 12px;&quot;&gt;47&lt;/font&gt;" style="text;html=1;align=center;verticalAlign=middle;resizable=1;points=[];autosize=1;strokeColor=none;fillColor=none;labelBackgroundColor=none;fontStyle=1;fontSize=8;movable=1;rotatable=1;deletable=1;editable=1;locked=0;connectable=1;container=0;" vertex="1" parent="arwhIM7CT7ZnuuH5wVLV-93">
          <mxGeometry y="10" width="40" height="30" as="geometry" />
        </mxCell>
        <mxCell id="arwhIM7CT7ZnuuH5wVLV-98" value="9" style="text;html=1;align=center;verticalAlign=middle;resizable=1;points=[];autosize=1;strokeColor=none;fillColor=none;fontStyle=1;movable=1;rotatable=1;deletable=1;editable=1;locked=0;connectable=1;container=0;" vertex="1" parent="arwhIM7CT7ZnuuH5wVLV-93">
          <mxGeometry x="25" y="45" width="30" height="30" as="geometry" />
        </mxCell>
        <mxCell id="arwhIM7CT7ZnuuH5wVLV-99" value="" style="group" connectable="0" vertex="1" parent="1">
          <mxGeometry x="490" y="-619" width="150" height="30" as="geometry" />
        </mxCell>
        <mxCell id="arwhIM7CT7ZnuuH5wVLV-100" style="edgeStyle=none;curved=1;html=1;startSize=10;endFill=1;endSize=10;strokeWidth=2;fontSize=12;" edge="1" parent="arwhIM7CT7ZnuuH5wVLV-99">
          <mxGeometry relative="1" as="geometry">
            <mxPoint as="sourcePoint" />
            <mxPoint x="150" as="targetPoint" />
          </mxGeometry>
        </mxCell>
        <mxCell id="arwhIM7CT7ZnuuH5wVLV-101" value="8" style="text;html=1;resizable=0;points=[];align=center;verticalAlign=middle;labelBackgroundColor=#ffffff;fontSize=20;" connectable="0" vertex="1" parent="arwhIM7CT7ZnuuH5wVLV-100">
          <mxGeometry x="0.1545" relative="1" as="geometry">
            <mxPoint x="3" y="-20" as="offset" />
          </mxGeometry>
        </mxCell>
        <mxCell id="arwhIM7CT7ZnuuH5wVLV-102" value="C" style="text;html=1;strokeColor=none;fillColor=none;align=center;verticalAlign=middle;whiteSpace=wrap;rounded=0;shadow=1;labelBackgroundColor=none;fontSize=20;" vertex="1" parent="arwhIM7CT7ZnuuH5wVLV-99">
          <mxGeometry x="61.36363636363636" y="10" width="27.27272727272727" height="20" as="geometry" />
        </mxCell>
        <mxCell id="arwhIM7CT7ZnuuH5wVLV-116" value="" style="group" connectable="0" vertex="1" parent="1">
          <mxGeometry x="870" y="-830" width="80" height="80" as="geometry" />
        </mxCell>
        <mxCell id="arwhIM7CT7ZnuuH5wVLV-117" value="" style="shape=lineEllipse;perimeter=ellipsePerimeter;whiteSpace=wrap;html=1;backgroundOutline=1;movable=1;resizable=1;rotatable=1;deletable=1;editable=1;locked=0;connectable=1;container=0;" vertex="1" parent="arwhIM7CT7ZnuuH5wVLV-116">
          <mxGeometry width="80" height="80" as="geometry" />
        </mxCell>
        <mxCell id="arwhIM7CT7ZnuuH5wVLV-118" value="" style="line;strokeWidth=2;direction=south;html=1;noLabel=0;movable=1;resizable=1;rotatable=1;deletable=1;editable=1;locked=0;connectable=1;container=0;" vertex="1" parent="arwhIM7CT7ZnuuH5wVLV-116">
          <mxGeometry x="35" width="10" height="40" as="geometry" />
        </mxCell>
        <mxCell id="arwhIM7CT7ZnuuH5wVLV-119" value="&lt;font size=&quot;1&quot; style=&quot;&quot;&gt;&lt;b style=&quot;font-size: 13px;&quot;&gt;21&lt;/b&gt;&lt;/font&gt;" style="text;html=1;align=center;verticalAlign=middle;resizable=1;points=[];autosize=1;strokeColor=none;fillColor=none;fontSize=8;movable=1;rotatable=1;deletable=1;editable=1;locked=0;connectable=1;container=0;" vertex="1" parent="arwhIM7CT7ZnuuH5wVLV-116">
          <mxGeometry x="35" y="10" width="40" height="30" as="geometry" />
        </mxCell>
        <mxCell id="arwhIM7CT7ZnuuH5wVLV-120" value="&lt;font style=&quot;font-size: 12px;&quot;&gt;21&lt;/font&gt;" style="text;html=1;align=center;verticalAlign=middle;resizable=1;points=[];autosize=1;strokeColor=none;fillColor=none;labelBackgroundColor=none;fontStyle=1;fontSize=8;movable=1;rotatable=1;deletable=1;editable=1;locked=0;connectable=1;container=0;" vertex="1" parent="arwhIM7CT7ZnuuH5wVLV-116">
          <mxGeometry y="10" width="40" height="30" as="geometry" />
        </mxCell>
        <mxCell id="arwhIM7CT7ZnuuH5wVLV-121" value="5" style="text;html=1;align=center;verticalAlign=middle;resizable=1;points=[];autosize=1;strokeColor=none;fillColor=none;fontStyle=1;movable=1;rotatable=1;deletable=1;editable=1;locked=0;connectable=1;container=0;" vertex="1" parent="arwhIM7CT7ZnuuH5wVLV-116">
          <mxGeometry x="25" y="45" width="30" height="30" as="geometry" />
        </mxCell>
        <mxCell id="arwhIM7CT7ZnuuH5wVLV-126" value="" style="group;perimeterSpacing=7;strokeWidth=7;strokeColor=none;" connectable="0" vertex="1" parent="1">
          <mxGeometry x="720" y="-790" width="150" height="30" as="geometry" />
        </mxCell>
        <mxCell id="arwhIM7CT7ZnuuH5wVLV-127" style="edgeStyle=none;curved=1;html=1;startSize=10;endFill=1;endSize=10;strokeWidth=2;fontSize=12;" edge="1" parent="arwhIM7CT7ZnuuH5wVLV-126">
          <mxGeometry relative="1" as="geometry">
            <mxPoint as="sourcePoint" />
            <mxPoint x="150" as="targetPoint" />
          </mxGeometry>
        </mxCell>
        <mxCell id="arwhIM7CT7ZnuuH5wVLV-128" value="3" style="text;html=1;resizable=0;points=[];align=center;verticalAlign=middle;labelBackgroundColor=#ffffff;fontSize=20;" connectable="0" vertex="1" parent="arwhIM7CT7ZnuuH5wVLV-127">
          <mxGeometry x="0.1545" relative="1" as="geometry">
            <mxPoint x="3" y="-20" as="offset" />
          </mxGeometry>
        </mxCell>
        <mxCell id="arwhIM7CT7ZnuuH5wVLV-129" value="E" style="text;html=1;strokeColor=none;fillColor=none;align=center;verticalAlign=middle;whiteSpace=wrap;rounded=0;shadow=1;labelBackgroundColor=none;fontSize=20;" vertex="1" parent="arwhIM7CT7ZnuuH5wVLV-126">
          <mxGeometry x="61.36363636363636" y="10" width="27.27272727272727" height="20" as="geometry" />
        </mxCell>
        <mxCell id="f0bcc99304e6f5a-13" style="edgeStyle=none;curved=1;html=1;startSize=10;endFill=1;endSize=10;strokeWidth=2;fontSize=12;entryX=0;entryY=0.5;entryDx=0;entryDy=0;exitX=0.5;exitY=1;exitDx=0;exitDy=0;" edge="1" parent="1" source="arwhIM7CT7ZnuuH5wVLV-54" target="arwhIM7CT7ZnuuH5wVLV-94">
          <mxGeometry relative="1" as="geometry">
            <mxPoint x="490" y="-619" as="sourcePoint" />
            <mxPoint x="650" y="-500" as="targetPoint" />
          </mxGeometry>
        </mxCell>
        <mxCell id="f0bcc99304e6f5a-26" value="10" style="text;html=1;resizable=0;points=[];align=center;verticalAlign=middle;labelBackgroundColor=#ffffff;fontSize=20;" vertex="1" connectable="0" parent="f0bcc99304e6f5a-13">
          <mxGeometry x="-0.2658" y="2" relative="1" as="geometry">
            <mxPoint x="45" y="1" as="offset" />
          </mxGeometry>
        </mxCell>
        <mxCell id="f0bcc99304e6f5a-35" value="D" style="text;html=1;strokeColor=none;fillColor=none;align=center;verticalAlign=middle;whiteSpace=wrap;rounded=0;shadow=1;labelBackgroundColor=none;fontSize=20;" vertex="1" parent="1">
          <mxGeometry x="829.2628168513065" y="-374.5981223365909" width="20.734864270481115" height="9.201777707883922" as="geometry" />
        </mxCell>
        <mxCell id="arwhIM7CT7ZnuuH5wVLV-143" value="" style="endArrow=none;dashed=1;html=1;rounded=0;strokeWidth=3;entryX=0;entryY=0.5;entryDx=0;entryDy=0;entryPerimeter=0;" edge="1" parent="1" target="arwhIM7CT7ZnuuH5wVLV-89">
          <mxGeometry width="50" height="50" relative="1" as="geometry">
            <mxPoint x="680" y="-750" as="sourcePoint" />
            <mxPoint x="870" y="-900" as="targetPoint" />
          </mxGeometry>
        </mxCell>
        <mxCell id="arwhIM7CT7ZnuuH5wVLV-148" value="" style="group" connectable="0" vertex="1" parent="1">
          <mxGeometry x="980" y="-670" width="80" height="80" as="geometry" />
        </mxCell>
        <mxCell id="arwhIM7CT7ZnuuH5wVLV-149" value="" style="shape=lineEllipse;perimeter=ellipsePerimeter;whiteSpace=wrap;html=1;backgroundOutline=1;movable=1;resizable=1;rotatable=1;deletable=1;editable=1;locked=0;connectable=1;container=0;" vertex="1" parent="arwhIM7CT7ZnuuH5wVLV-148">
          <mxGeometry width="80" height="80" as="geometry" />
        </mxCell>
        <mxCell id="arwhIM7CT7ZnuuH5wVLV-150" value="" style="line;strokeWidth=2;direction=south;html=1;noLabel=0;movable=1;resizable=1;rotatable=1;deletable=1;editable=1;locked=0;connectable=1;container=0;" vertex="1" parent="arwhIM7CT7ZnuuH5wVLV-148">
          <mxGeometry x="35" width="10" height="40" as="geometry" />
        </mxCell>
        <mxCell id="arwhIM7CT7ZnuuH5wVLV-151" value="&lt;font size=&quot;1&quot; style=&quot;&quot;&gt;&lt;b style=&quot;font-size: 11px;&quot;&gt;28&lt;/b&gt;&lt;/font&gt;" style="text;html=1;align=center;verticalAlign=middle;resizable=1;points=[];autosize=1;strokeColor=none;fillColor=none;fontSize=8;movable=1;rotatable=1;deletable=1;editable=1;locked=0;connectable=1;container=0;" vertex="1" parent="arwhIM7CT7ZnuuH5wVLV-148">
          <mxGeometry x="35" y="10" width="40" height="30" as="geometry" />
        </mxCell>
        <mxCell id="arwhIM7CT7ZnuuH5wVLV-152" value="&lt;font style=&quot;font-size: 12px;&quot;&gt;28&lt;/font&gt;" style="text;html=1;align=center;verticalAlign=middle;resizable=1;points=[];autosize=1;strokeColor=none;fillColor=none;labelBackgroundColor=none;fontStyle=1;fontSize=8;movable=1;rotatable=1;deletable=1;editable=1;locked=0;connectable=1;container=0;" vertex="1" parent="arwhIM7CT7ZnuuH5wVLV-148">
          <mxGeometry y="10" width="40" height="30" as="geometry" />
        </mxCell>
        <mxCell id="arwhIM7CT7ZnuuH5wVLV-153" value="6" style="text;html=1;align=center;verticalAlign=middle;resizable=1;points=[];autosize=1;strokeColor=none;fillColor=none;fontStyle=1;movable=1;rotatable=1;deletable=1;editable=1;locked=0;connectable=1;container=0;" vertex="1" parent="arwhIM7CT7ZnuuH5wVLV-148">
          <mxGeometry x="25" y="45" width="30" height="30" as="geometry" />
        </mxCell>
        <mxCell id="arwhIM7CT7ZnuuH5wVLV-155" value="" style="group" connectable="0" vertex="1" parent="1">
          <mxGeometry x="1090" y="-510" width="80" height="80" as="geometry" />
        </mxCell>
        <mxCell id="arwhIM7CT7ZnuuH5wVLV-156" value="" style="shape=lineEllipse;perimeter=ellipsePerimeter;whiteSpace=wrap;html=1;backgroundOutline=1;movable=1;resizable=1;rotatable=1;deletable=1;editable=1;locked=0;connectable=1;container=0;" vertex="1" parent="arwhIM7CT7ZnuuH5wVLV-155">
          <mxGeometry width="80" height="80" as="geometry" />
        </mxCell>
        <mxCell id="arwhIM7CT7ZnuuH5wVLV-157" value="" style="line;strokeWidth=2;direction=south;html=1;noLabel=0;movable=1;resizable=1;rotatable=1;deletable=1;editable=1;locked=0;connectable=1;container=0;" vertex="1" parent="arwhIM7CT7ZnuuH5wVLV-155">
          <mxGeometry x="35" width="10" height="40" as="geometry" />
        </mxCell>
        <mxCell id="arwhIM7CT7ZnuuH5wVLV-158" value="&lt;font size=&quot;1&quot; style=&quot;&quot;&gt;&lt;b style=&quot;font-size: 12px;&quot;&gt;31&lt;/b&gt;&lt;/font&gt;" style="text;html=1;align=center;verticalAlign=middle;resizable=1;points=[];autosize=1;strokeColor=none;fillColor=none;fontSize=8;movable=1;rotatable=1;deletable=1;editable=1;locked=0;connectable=1;container=0;" vertex="1" parent="arwhIM7CT7ZnuuH5wVLV-155">
          <mxGeometry x="35" y="10" width="40" height="30" as="geometry" />
        </mxCell>
        <mxCell id="arwhIM7CT7ZnuuH5wVLV-159" value="&lt;font style=&quot;font-size: 12px;&quot;&gt;31&lt;/font&gt;" style="text;html=1;align=center;verticalAlign=middle;resizable=1;points=[];autosize=1;strokeColor=none;fillColor=none;labelBackgroundColor=none;fontStyle=1;fontSize=8;movable=1;rotatable=1;deletable=1;editable=1;locked=0;connectable=1;container=0;" vertex="1" parent="arwhIM7CT7ZnuuH5wVLV-155">
          <mxGeometry y="10" width="40" height="30" as="geometry" />
        </mxCell>
        <mxCell id="arwhIM7CT7ZnuuH5wVLV-160" value="7" style="text;html=1;align=center;verticalAlign=middle;resizable=1;points=[];autosize=1;strokeColor=none;fillColor=none;fontStyle=1;movable=1;rotatable=1;deletable=1;editable=1;locked=0;connectable=1;container=0;" vertex="1" parent="arwhIM7CT7ZnuuH5wVLV-155">
          <mxGeometry x="25" y="45" width="30" height="30" as="geometry" />
        </mxCell>
        <mxCell id="arwhIM7CT7ZnuuH5wVLV-183" value="" style="group" connectable="0" vertex="1" parent="1">
          <mxGeometry x="1270" y="-630" width="80" height="80" as="geometry" />
        </mxCell>
        <mxCell id="arwhIM7CT7ZnuuH5wVLV-184" value="" style="shape=lineEllipse;perimeter=ellipsePerimeter;whiteSpace=wrap;html=1;backgroundOutline=1;movable=1;resizable=1;rotatable=1;deletable=1;editable=1;locked=0;connectable=1;container=0;" vertex="1" parent="arwhIM7CT7ZnuuH5wVLV-183">
          <mxGeometry width="80" height="80" as="geometry" />
        </mxCell>
        <mxCell id="arwhIM7CT7ZnuuH5wVLV-185" value="" style="line;strokeWidth=2;direction=south;html=1;noLabel=0;movable=1;resizable=1;rotatable=1;deletable=1;editable=1;locked=0;connectable=1;container=0;" vertex="1" parent="arwhIM7CT7ZnuuH5wVLV-183">
          <mxGeometry x="35" width="10" height="40" as="geometry" />
        </mxCell>
        <mxCell id="arwhIM7CT7ZnuuH5wVLV-186" value="&lt;font size=&quot;1&quot; style=&quot;&quot;&gt;&lt;b style=&quot;font-size: 13px;&quot;&gt;37&lt;/b&gt;&lt;/font&gt;" style="text;html=1;align=center;verticalAlign=middle;resizable=1;points=[];autosize=1;strokeColor=none;fillColor=none;fontSize=8;movable=1;rotatable=1;deletable=1;editable=1;locked=0;connectable=1;container=0;" vertex="1" parent="arwhIM7CT7ZnuuH5wVLV-183">
          <mxGeometry x="35" y="10" width="40" height="30" as="geometry" />
        </mxCell>
        <mxCell id="arwhIM7CT7ZnuuH5wVLV-187" value="&lt;font style=&quot;font-size: 12px;&quot;&gt;37&lt;/font&gt;" style="text;html=1;align=center;verticalAlign=middle;resizable=1;points=[];autosize=1;strokeColor=none;fillColor=none;labelBackgroundColor=none;fontStyle=1;fontSize=8;movable=1;rotatable=1;deletable=1;editable=1;locked=0;connectable=1;container=0;" vertex="1" parent="arwhIM7CT7ZnuuH5wVLV-183">
          <mxGeometry y="10" width="40" height="30" as="geometry" />
        </mxCell>
        <mxCell id="arwhIM7CT7ZnuuH5wVLV-188" value="8" style="text;html=1;align=center;verticalAlign=middle;resizable=1;points=[];autosize=1;strokeColor=none;fillColor=none;fontStyle=1;movable=1;rotatable=1;deletable=1;editable=1;locked=0;connectable=1;container=0;" vertex="1" parent="arwhIM7CT7ZnuuH5wVLV-183">
          <mxGeometry x="25" y="45" width="30" height="30" as="geometry" />
        </mxCell>
        <mxCell id="arwhIM7CT7ZnuuH5wVLV-195" value="" style="group" connectable="0" vertex="1" parent="1">
          <mxGeometry x="950" y="-790" width="29.99636363636364" height="90" as="geometry" />
        </mxCell>
        <mxCell id="arwhIM7CT7ZnuuH5wVLV-145" style="edgeStyle=none;curved=1;html=1;startSize=10;endFill=1;endSize=10;strokeWidth=2;fontSize=12;entryX=0;entryY=0.5;entryDx=0;entryDy=0;entryPerimeter=0;" edge="1" parent="arwhIM7CT7ZnuuH5wVLV-195" target="arwhIM7CT7ZnuuH5wVLV-150">
          <mxGeometry relative="1" as="geometry">
            <mxPoint as="sourcePoint" />
            <mxPoint x="150" as="targetPoint" />
          </mxGeometry>
        </mxCell>
        <mxCell id="arwhIM7CT7ZnuuH5wVLV-146" value="7" style="text;html=1;resizable=0;points=[];align=center;verticalAlign=middle;labelBackgroundColor=#ffffff;fontSize=20;" connectable="0" vertex="1" parent="arwhIM7CT7ZnuuH5wVLV-145">
          <mxGeometry x="0.1545" relative="1" as="geometry">
            <mxPoint x="3" y="-20" as="offset" />
          </mxGeometry>
        </mxCell>
        <mxCell id="arwhIM7CT7ZnuuH5wVLV-147" value="F" style="text;html=1;strokeColor=none;fillColor=none;align=center;verticalAlign=middle;whiteSpace=wrap;rounded=0;shadow=1;labelBackgroundColor=none;fontSize=20;" vertex="1" parent="arwhIM7CT7ZnuuH5wVLV-195">
          <mxGeometry x="2.7236363636363876" y="70" width="27.27272727272727" height="20" as="geometry" />
        </mxCell>
        <mxCell id="arwhIM7CT7ZnuuH5wVLV-196" value="" style="group" connectable="0" vertex="1" parent="1">
          <mxGeometry x="1020" y="-590" width="80" height="100" as="geometry" />
        </mxCell>
        <mxCell id="arwhIM7CT7ZnuuH5wVLV-154" value="" style="endArrow=classic;html=1;rounded=0;endSize=7;strokeWidth=2;" edge="1" parent="arwhIM7CT7ZnuuH5wVLV-196">
          <mxGeometry width="50" height="50" relative="1" as="geometry">
            <mxPoint as="sourcePoint" />
            <mxPoint x="80" y="100" as="targetPoint" />
          </mxGeometry>
        </mxCell>
        <mxCell id="arwhIM7CT7ZnuuH5wVLV-161" value="G" style="text;html=1;align=center;verticalAlign=middle;resizable=0;points=[];autosize=1;strokeColor=none;fillColor=none;strokeWidth=1;fontStyle=1;fontSize=18;" vertex="1" parent="arwhIM7CT7ZnuuH5wVLV-196">
          <mxGeometry y="50" width="40" height="40" as="geometry" />
        </mxCell>
        <mxCell id="arwhIM7CT7ZnuuH5wVLV-162" value="3" style="text;html=1;align=center;verticalAlign=middle;resizable=0;points=[];autosize=1;strokeColor=none;fillColor=none;fontSize=19;fontStyle=1" vertex="1" parent="arwhIM7CT7ZnuuH5wVLV-196">
          <mxGeometry x="40" y="20" width="30" height="40" as="geometry" />
        </mxCell>
        <mxCell id="arwhIM7CT7ZnuuH5wVLV-179" value="" style="endArrow=classic;html=1;rounded=0;strokeWidth=2;endSize=8;" edge="1" parent="1">
          <mxGeometry width="50" height="50" relative="1" as="geometry">
            <mxPoint x="1160" y="-500" as="sourcePoint" />
            <mxPoint x="1270" y="-570" as="targetPoint" />
          </mxGeometry>
        </mxCell>
        <mxCell id="arwhIM7CT7ZnuuH5wVLV-180" value="H" style="text;html=1;align=center;verticalAlign=middle;resizable=0;points=[];autosize=1;strokeColor=none;fillColor=none;fontSize=16;fontStyle=1" vertex="1" parent="1">
          <mxGeometry x="1200" y="-529.9958620689655" width="40" height="30" as="geometry" />
        </mxCell>
        <mxCell id="arwhIM7CT7ZnuuH5wVLV-181" value="6" style="text;html=1;align=center;verticalAlign=middle;resizable=0;points=[];autosize=1;strokeColor=none;fillColor=none;fontSize=16;fontStyle=1" vertex="1" parent="1">
          <mxGeometry x="1190" y="-559.9958620689655" width="30" height="30" as="geometry" />
        </mxCell>
        <mxCell id="arwhIM7CT7ZnuuH5wVLV-190" value="" style="endArrow=classic;html=1;rounded=0;endSize=7;strokeWidth=2;exitX=1;exitY=0.5;exitDx=0;exitDy=0;entryX=0;entryY=0.5;entryDx=0;entryDy=0;entryPerimeter=0;" edge="1" parent="1" source="arwhIM7CT7ZnuuH5wVLV-184" target="arwhIM7CT7ZnuuH5wVLV-95">
          <mxGeometry width="50" height="50" relative="1" as="geometry">
            <mxPoint x="1355" y="-500" as="sourcePoint" />
            <mxPoint x="1411.44" y="-397.44000000000005" as="targetPoint" />
          </mxGeometry>
        </mxCell>
        <mxCell id="arwhIM7CT7ZnuuH5wVLV-191" value="I" style="text;html=1;align=center;verticalAlign=middle;resizable=0;points=[];autosize=1;strokeColor=none;fillColor=none;strokeWidth=1;fontStyle=1;fontSize=18;" vertex="1" parent="1">
          <mxGeometry x="1350" y="-500" width="30" height="40" as="geometry" />
        </mxCell>
        <mxCell id="arwhIM7CT7ZnuuH5wVLV-192" value="10" style="text;html=1;align=center;verticalAlign=middle;resizable=0;points=[];autosize=1;strokeColor=none;fillColor=none;fontSize=19;fontStyle=1" vertex="1" parent="1">
          <mxGeometry x="1380" y="-520" width="40" height="40" as="geometry" />
        </mxCell>
        <mxCell id="arwhIM7CT7ZnuuH5wVLV-203" value="" style="endArrow=classic;html=1;rounded=0;exitX=0.9;exitY=0.753;exitDx=0;exitDy=0;exitPerimeter=0;entryX=0.275;entryY=0.106;entryDx=0;entryDy=0;entryPerimeter=0;endSize=8;strokeWidth=2;" edge="1" parent="1" source="arwhIM7CT7ZnuuH5wVLV-156" target="arwhIM7CT7ZnuuH5wVLV-94">
          <mxGeometry width="50" height="50" relative="1" as="geometry">
            <mxPoint x="800" y="-520" as="sourcePoint" />
            <mxPoint x="850" y="-570" as="targetPoint" />
          </mxGeometry>
        </mxCell>
        <mxCell id="arwhIM7CT7ZnuuH5wVLV-204" value="J" style="text;html=1;align=center;verticalAlign=middle;resizable=0;points=[];autosize=1;strokeColor=none;fillColor=none;strokeWidth=1;fontStyle=1;fontSize=18;" vertex="1" parent="1">
          <mxGeometry x="1260" y="-320" width="30" height="40" as="geometry" />
        </mxCell>
        <mxCell id="arwhIM7CT7ZnuuH5wVLV-205" value="9" style="text;html=1;align=center;verticalAlign=middle;resizable=0;points=[];autosize=1;strokeColor=none;fillColor=none;fontSize=19;fontStyle=1" vertex="1" parent="1">
          <mxGeometry x="1305" y="-340" width="30" height="40" as="geometry" />
        </mxCell>
      </root>
    </mxGraphModel>
  </diagram>
  <diagram id="XgjR95_CbDBzMmXKCkjK" name="Gantt">
    <mxGraphModel grid="1" page="1" gridSize="10" guides="1" tooltips="1" connect="1" arrows="1" fold="1" pageScale="1" pageWidth="827" pageHeight="1169" math="0" shadow="0">
      <root>
        <mxCell id="0" />
        <mxCell id="1" parent="0" />
        <mxCell id="1w4AGiLb3TfyN5ArjQR6-40" value="" style="group" connectable="0" vertex="1" parent="1">
          <mxGeometry x="290" y="510" width="160" height="200" as="geometry" />
        </mxCell>
        <mxCell id="1w4AGiLb3TfyN5ArjQR6-1" value="I" style="align=center;strokeColor=#CCCCCC;html=1;" vertex="1" parent="1w4AGiLb3TfyN5ArjQR6-40">
          <mxGeometry x="1.9895196601282795e-13" y="39.999999999999716" width="159.99999999999977" height="19.999999999999957" as="geometry" />
        </mxCell>
        <mxCell id="1w4AGiLb3TfyN5ArjQR6-2" value="H" style="align=center;strokeColor=#CCCCCC;html=1;" vertex="1" parent="1w4AGiLb3TfyN5ArjQR6-40">
          <mxGeometry x="5.684341886080799e-14" y="60.000000000000114" width="159.99999999999994" height="19.999999999999943" as="geometry" />
        </mxCell>
        <mxCell id="1w4AGiLb3TfyN5ArjQR6-3" value="G" style="align=center;strokeColor=#CCCCCC;html=1;" vertex="1" parent="1w4AGiLb3TfyN5ArjQR6-40">
          <mxGeometry y="80.00000000000006" width="160" height="19.999999999999943" as="geometry" />
        </mxCell>
        <mxCell id="1w4AGiLb3TfyN5ArjQR6-4" value="F" style="align=center;strokeColor=#CCCCCC;html=1;" vertex="1" parent="1w4AGiLb3TfyN5ArjQR6-40">
          <mxGeometry y="100.00000000000023" width="160" height="19.999999999999943" as="geometry" />
        </mxCell>
        <mxCell id="1w4AGiLb3TfyN5ArjQR6-5" value="E" style="align=center;strokeColor=#CCCCCC;html=1;" vertex="1" parent="1w4AGiLb3TfyN5ArjQR6-40">
          <mxGeometry x="3.6948222259525195e-13" y="120.0000000000004" width="159.99999999999963" height="19.999999999999943" as="geometry" />
        </mxCell>
        <mxCell id="1w4AGiLb3TfyN5ArjQR6-6" value="D" style="align=center;strokeColor=#CCCCCC;html=1;" vertex="1" parent="1w4AGiLb3TfyN5ArjQR6-40">
          <mxGeometry x="3.6948222259525195e-13" y="140.00000000000023" width="159.99999999999963" height="19.999999999999943" as="geometry" />
        </mxCell>
        <mxCell id="1w4AGiLb3TfyN5ArjQR6-7" value="Task Name" style="strokeWidth=1;fontStyle=0;html=1;" vertex="1" parent="1w4AGiLb3TfyN5ArjQR6-40">
          <mxGeometry x="5.684341886080799e-14" width="159.99999999999994" height="19.999999999999943" as="geometry" />
        </mxCell>
        <mxCell id="1w4AGiLb3TfyN5ArjQR6-8" value="C" style="align=center;strokeColor=#CCCCCC;html=1;" vertex="1" parent="1w4AGiLb3TfyN5ArjQR6-40">
          <mxGeometry x="3.6948222259525195e-13" y="160.00000000000017" width="159.99999999999963" height="19.999999999999943" as="geometry" />
        </mxCell>
        <mxCell id="1w4AGiLb3TfyN5ArjQR6-9" value="B" style="align=center;strokeColor=#CCCCCC;html=1;" vertex="1" parent="1w4AGiLb3TfyN5ArjQR6-40">
          <mxGeometry x="3.6948222259525195e-13" y="180.0000000000001" width="159.99999999999963" height="19.999999999999943" as="geometry" />
        </mxCell>
        <mxCell id="1w4AGiLb3TfyN5ArjQR6-39" value="A" style="align=center;strokeColor=#CCCCCC;html=1;" vertex="1" parent="1w4AGiLb3TfyN5ArjQR6-40">
          <mxGeometry x="3.979039320256559e-13" y="200.00000000000006" width="159.99999999999963" height="19.999999999999943" as="geometry" />
        </mxCell>
        <mxCell id="WK32EQev9AKKKaW4LnYa-1" value="&lt;img height=&quot;352&quot; width=&quot;445&quot; src=&quot;data:image/png;base64,iVBORw0KGgoAAAANSUhEUgAAAb0AAAFgCAYAAAAvjqe1AAAACXBIWXMAAA7DAAAOwwHHb6hkAAAiHElEQVR4Xu3dwXXi2hKFYWfxAiEPwiAJYnAIREACjBkzZegpQ4ae8nrret8+yEcgsHSuq/hrrW91WxIYW+XaklC33/73v/9dEN/b21t1ORAFPYwWCL0kGBiIjh5GC4ReEgwMREcPowVCLwkGBqKjh9ECoZcEAwPR0cNogdBLgoGB6OhhtEDoJcHAQHT0MFog9JJgYCA6ehgtEHpJMDAQHT2MFgi9isPhcFHtdrvq+kecz+fuudbrdXX9VBgY/50p93GrfvmN6OHf4XQ6dT242Wyq66ObPfT8Q6ya8gf5eDx2z7nf76vra7bbbfcY7dTaevv4+Oi2myL0XITefcvl8uu7dbl8fn5eFotFdbtn6PlU7+/v1fU1Y3vMNcU+dhF6MbivytJ8Uc9M2b9TuTcDFXQqHfjX1mcwa+jpB1flxtAQqW13i3dS/7GE3rUMoafvt8r9ov1V2+4W90X/sYTe7xexh2+Vem61WlUf91+5NwP1mrXuNwb2VGYNPV8m9Dda9eg304NQQVRbPwdC77/hqwJjD05qptx3Y7kIvZ+JHHreX5pvOlvyQdYzPYx5zRp63vFqBO18Ve3oXUffXq/HeGB5gJXl8PNRuLd1lUfy5eUyfexhWgaoXpvDWaW/+7WUg1PLy0u1+nt/sOqozq/ZX4eL0LtN3zuVvvfaJ67akbK+r94X+tP7vFbeR+5F7QdxlQdhvrQz1GMyZh+r7/RYf06Vvq7+WebYftF2fi2q2nMNfU8iyRB6pu+/yz1c66faTPJ26kfPIs/NMXPIM839p+f2a6h9PtFz+HOp9PfyPT09XqXXpuWRe2220PNO1zdJH/ubrW9muZ0HTb/URB4IZfn5vM473I2ine3n7n9ObauqNVit/NzlkOyXG0ONVjZjv/o/FFOLHnq6hKjyD7f3S//SovZvrbSuVn4+l/eDB0L5g93/nP0eG7uP3We1UiA+8lzavgzPsjxsaj9DeozWRZIp9Mp17sF+P0ltJnm7srSdPsdQlXOoDC+Xn7/2+fyzVyu/9lufW+W+jmC20PMA8c4oz7rKb5B/8DXMtMO0To/tD5ByJ4kbww3kH/zyh9073zuu/1zla/Lz6PP6NXmZ6Dl8tCR+7v7nV/m115bNJXroebC7N/y9077wNuX+Kn8YywOpfl+Yy/vB4ale08fqPZf381CPqW7tY71OLffXUj73rcfVlnkg6XXqebRMr8fLah/rsf2flwiyhp77p9ab3nfl/vJ2+pnQ82q/e9+PnUN+rJf1e8Wfr/Yzpc+l7VX++dNzuTyrffanqn39v9UsoadviMs7S7yDyqN319A3rdYU0m8gfR4PTh0BlzvTr6H/XOWO9PNK/7lFjePlZXmbodfpmrspIoeerwqU4VX2kM9ohvZXqbbvxOX9UD6XPpeHxa0AHbuP9Xza1v1elrcZ+1x+DbXya9Xwce/rTw0lB24kWUNPvaWPa71Z64PadvbsHLL++vLnoNyuv3xoO78WB2YEs4SeB8hQlUfvrlrTyNBO9De7bAwfvetP7QSVj3Bk7A7vP/etr8fbDL1O19DXN5XIoef9NlRar+2G9lep1hfiKveDz+i1f31kW/7w9p9r7D6+9fV4m7HP5ddQq/KxCjkdTJbhFy34MoVeOTOGrhxIrQ9q28lP5pD11+t1u8rt+suHtht6rb/ZLKFXO8Ltl5vEP6QaFDpCFv3d672TfFTrH+TaN9tnDHpOvwY1itf3d3h5Nuhhp8/r1+Tn9uMcoHqNfn5vU2tyB6/KX89cooaevpf3SvtD25WXU7y/tA/dG+K+8NUE94ur3A++dOjHqMqg6PfY2H3sx5Wv0eVtxj6XA1S9p++BlvXp9YnXO8zn7rmpZQg97QPtW88QzxrxgZWWaTv1hXul3M7L3Hemj1W35pB7SJ/fr0l/+jF+Dn++2s+Untev1T9beg6XPrah1/qbTR565Q94OUDMP5A+evdO6Jd3WDkcVN5ZQ99sN5vKw9Lr+jtc/Dxl+Tn83OUw6pe30ecpP7fLy/z1zCVq6Hn/lmf/VvaSttOy2v5S+TH9syzvH1e5H8ofeFXZF9LvsbH72AOjVt5m7HPpz6Hy69Kftar9/P1mkUOvVuppH9BIf5aVVZtJ3r/2kznk53ev1D5fre69tTD0Wn+zyUPPO6b8ppb8TdeOKZc5DPVn/xtYDjKv82Dpb+ujd5WD1WqvTU1SDik9xmeM5XOXl4509OPPU26jBveRl7bVOlF5iM0laugN7UfzD5W208faX9pH5b7wD6aUR8/axuu8fX8/eH+pHKxWe21j9nG/p/R3f1x+/rH9or+Xz+fykbmep1zf/55EEbGH3Vdlqf+0H9UH/e3LOaLttO/8d2/jfannKB8rY+dQ2Q/6u5Zp3dAM1OM9g1V6TL9XXV4m/llzL0Ywy+VNtBc19ACjh9ECoZcEAwPR0cNogdBLgoGB6OhhtEDoJcHAQHT0MFog9JJgYCA6ehgtEHpJMDAQHT2MFgi9JBgYiI4eRguEXhIMDERHD6MFQi8JBgaio4fRAqGXBAMD0dHDaIHQS4KBgejoYbRA6CXBwEB09DBaIPSSYGC04/8tv/xPe/Fz9DBaIPSSYGC049+EQOhNix5GC4ReEgyMduYOPf8aF/0Kmdr6rOhhtEDoJcHAaGfu0NPvMXPV1mdFD6MFQi+JSAPDZzL6RZX6ZaflLxAuf5FruZ2Dpjz70WPLXwJb/rLM8jm03KVfQFv+cs/yl2fqufvrvU35iz/9fP3Qu/d6/As89Xz95/R2/jr75efofz21Xxhbfk36M8ovlCX00AKhl0SkgeEzGQ/9fvk3NpdnPGVpnQZ5rfSc+u3p2kYBUfscCgWt92+d7peCROvFQVWrMvTGvJ6hQFMpnIa20XNonZ5n6HvmYPNNNmX58b8doYcWCL0kIoaeSkNeZ1blQNfZVn87n4E5QHxG5QDTOp8BKai0TI9RaVs9Tttoe39Ol0NW2/gMyWde/ljP7c+vsFOVoTfm9Widy8vKUPVzlV+3l4lD2q9Fy/ycWlb7WM/VPyP9rQg9tEDoJRE19MrlHuoe0kPbya3S82gbh5ODqFQ+d6185uTS9n6sg6UMk1vl11N7XPlYB+3Q1+2vp1Y+Oy3PbvWngt8HCr8doYcWCL0kMoSez8x+GnoOuZ+EnkPO5Y/l0dDz578Xev4cQ1/3rdArn1Mhp6Atwy9C8BF6aIHQSyJq6CkIdKmuPEPxmdHQ8BdfdqwFmvnyoi9vapkuJ+ox+thVBlpfeXlTH+txvpRZBs2Y1/NM6PmSqpb7oKC8vNmnzyFe79d162v8LQg9tEDoJRE19GrlIV9u138OB0itauFRloPp1pnTrc/jcC7Da8zr8Tb3Qq8MZJeWD309Kn9NQ6/D39PfjNBDC4ReElFDT++d+WxEZ1Ae/KKzP1f5eNOdij7rKsvvjYme39v4PS6fBelPhYQ/v0vb+fFSXipUYPl19cPr3uvxTStDoVe+bm1bC1d9f3wGW5ZvjNFzlOv1evz+5G9H6KEFQi+JqKFXW4/XROihBUIvCUIP0RF6aIHQSyLSwPDlQVVtPV4ToYcWCL0kGBiIjh5GC4ReEgwMREcPowVCLwkGBqKjh9ECoZcEAwPR0cNo4U+fvXXNBgBAerUkRDzambXlQBT0MFog9JJgYCA6ehgtEHpJMDAQHT2MFgi9JBgYiI4eRguEXhIMDERHD6MFQi8JBgaio4fRAqGXBAMD0dHDaIHQS4KBgejoYbRA6CXBwEB09DBaIPSSYGAgOnoYLaQNvcPh8PUb2y6X3W5X3SYTBgaio4cfdzwev6bcpZt5tW1wLWXoLRaLy+fnZ0elP2vbZcLAQHT08GPe39+7+eb6+PiobodrKUNvs9l0TbDf7y/n87n7uxqktm0WDAxERw8/xrPNV7UIvXFShp5P+RV0Cj6VltW2zYKBgejo4fH0lo1K881/J/TGSRd6urSp8iXN1WrVfazSuv72WTAwEB09PM5yufz37RvNNELvMelCb7vddg1QvqnrywC67FlumwkDY1rlwZJLy8obB1TZryC0RA+P4x7UrNPHhN5j0oXe6XTqGqB8D8+XOLWu3DYTBsa0CL326OH73Jc6kPcyQu8xqUJPp/33StvUHhsdAwPR0cP3OeCG6hXuVP+pVKHnM7pbpaapPTY6Bgaio4fv89s3Q0Xo3Zcq9G69d+fbesvLApkwMBAdPfwcLm8+Jk3o+Vq372jqr1+v1916lbbtr4+OgYHo6OHnOPR4f3mcdDeyvCoGBqKjh9ECoZcEAwPR0cNogdBLgoGB6OhhtEDoJcHAQHT0MFog9JJgYCA6ehgtEHpJMDAQHT2MFgi9JBgYiI4eRgt/+uytazYAANKrJSHi0c6sLQeioIfRAqGXBAMD0dHDaIHQS4KBgejoYbRA6CXBwEB09DBaIPSSYGAgOnoYLRB6STAwEB09jBYIvSQYGIiOHkYLhF4SDAxERw+jBUIvCQYGoqOH0QKhlwQDA9HRw2ghXeh9fn52vzq/rI+Pj8v7+3t1+ywYGPM6HA5f3XS57Ha76jb4GXp42HK5vByPx67/NONq28hisbicz+duO9Vms6lu98rShd6tWq1W1cdkwMCYjwaJBo0PqG4NHTyPHq7TQVa/atvJfr//2uKf4gDtu7Sht16vu491hOTK3AAMjPnoaFmlgeKj6OxXDv4L9HCdSr1XBlptO8869aiubqkIve/Sh57O7lyc6eEZvqykoPPg0bLatngePXxbecZXW++gU58SesNe5vLmdrutbp8FA2MeurSp8iXN8iBK6/rb43n08G23Qk9Bp1LY6WNCb9hLvaeX+U1dBsY8dLCk0o0sXuZLnNwkMC16+Lah0CtvXvHVLEJvWPrLm2oI33mX+QYEBsY8TqdT1zvle3i+xKl15bb4GXr4tqHQqx2YEXrD0oee6O+ucttMGBjTK2+CGiptU3ssHkcP3zYUeg64oeL952uc6SXBwJheebfcUHEkPR16+Lah0PONVkNF6F17qff0Mg8oBsb0br135wMpbdNfh+fQw3W3zuRq2wuXN4elCz3/A+Ky1ADZbzpgYEzLd2mqn2p3aZaXzDP/U5iW6OG6n4Re9rvWn5Eu9F4VAwPR0cNogdBLgoGB6OhhtEDoJcHAQHT0MFog9JJgYCA6ehgtEHpJMDAQHT2MFgi9JBgYiI4eRguEXhIMDERHD6MFQi8JBgaio4fRwp8+e+uaDQCA9GpJiHi0M2vLgSjoYbRA6CXBwEB09DBaIPSSYGAgOnoYLRB6STAwEB09jBYIvSQYGIiOHkYLhF4SDAxERw+jBUIvCQYGoqOH0QKhlwQDA9HRw2iB0EuCgYHo6GG0QOglwcBAdPQwWkgbepvN5vLx8XFxnU6ny263q26bAQNjXofD4auTLqn76L9ED4+nHtRMc+nv2+22ui2upQy9ckD1a71eVx8THQNjPovF4vL5+dlR6c/advgZengcBd5Qvb+/Vx+Dv9KFns7wXAq/5XLZLV+tVt2ZH6GHR7mn9vv95Xw+d39nuEyPHh7HV7DUj/pYB2XuS65C3Jcu9NwQOt2vrc+KgTGf4/HY9ZSCToNGpWW1bfE8engcz7gy4HypUwdo5bb4Ll3ouV7tiIeBMQ8dRat8SVNXDFxa198ez6OHx1EP+lK7AtCBpytbte1xjdBLgoExD90coCoHii8lcVQ9LXp4vPJtHJVCMOtbN1Mj9JJgYMzDR9Hle3i+xPlql9DnRg+P48DTwZf+Xt64x3vN96ULPR+F67S/tj4rBsb0dBPUvfKNUvg5evg+X25Xlb3nA7FXm3vPSBd6OsNz9e/e1M0H3L2JsTxIbtWrXVGYEz18n+aXy/8uT0Hom60IvfvShZ4awJekakXoYaxb7935kpK26a/Dc+jhcdyXteIg7L50oScKPu38Mvz098wNwcCYlu/S1A0Ctbs0yyNubdtfj8fRw+Po6pUOunwHp0rzjRurxkkZeq+IgYHo6GG0QOglwcBAdPQwWiD0kmBgIDp6GC0QekkwMBAdPYwWCL0kGBiIjh5GC4ReEgwMREcPowVCLwkGBqKjh9HCnz5765oNAID0akmIeLQza8uBKOhhtEDoJcHAQHT0MFog9JJgYCA6ehgtEHpJMDAQHT2MFgi9JBgYiI4eRguEXhIMDERHD6MFQi8JBgaio4fRAqGXBAMD0dHDaIHQS4KBgejoYbRA6CXBwEB09DBaSBV62+3265fn/y39Sv3j8Xh5f3+vPiYLBsa8DofDV0ddLrvdrroNfoYeHrZcLrs5ptJMq22jvjyfz902KvXsYrGobvvKUoWedvqtUhPUHpcBA2M+GhwaNKIaGjr4GXq4rjbX+tvs9/uvNdd1Op2+bfvqUobex8fHv8tWq9W/R0iqrGd8DIz5bDabrnc0WHwknf3KwX+BHq5TqffKYCvX66DM5asQ6k8XvXotfeiZjnhUCsD+ugwYGPPxQZOGhwdP1j76L9HDt5VnfOXyMuDK5T5AcxDiHy8Tel6X9dIUA2MePop23+jKgYv3S6ZFD982FHpDc08fqwi9ay8Xeqr+ugwYGPPwzVHl+8E+gtZlz3Jb/Aw9fBuhN42XCz0NrP66DBgY8/Bl8fJ9EV/i5CaBadHDtxF603iZ0PPROe/pYSzdJn6vtE3tsXgcPXzbUOj5RitVudwHbITetfSh1797c71eXz0mCwbG9Mq75YaKgTIdevi2odArD850OV7LyiDUDCy3f3UpQ2+oNMRqj8uAgTG9W+/d+R+rZ71c/l+gh+t8mbJW97bhLuPvUoVe7X9k0VDSjs96hmcMjGn5Lk3dtVm7S1P95OJIehr0cN2Y0FOP6kCs/A8UdJDPHcbfpQq9V8bAQHT0MFog9JJgYCA6ehgtEHpJMDAQHT2MFgi9JBgYiI4eRguEXhIMDERHD6MFQi8JBgaio4fRAqGXBAMD0dHDaIHQS4KBgejoYbTwp8/eumYDACC9WhIiHu3M2nIgCnoYLRB6STAwEB09jBYIvSQYGIiOHkYLhF4SDAxERw+jBUIvCQYGoqOH0QKhlwQDA9HRw2iB0EuCgYHo6GG0QOglwcBAdPQwWiD0kmBgIDp6GC0QekkwMBAdPYwW0oXearW6DNV2u60+JgMGxvM+Pz+/OuRvfXx8XN7f36vb9y2Xy8vhcLicz+fusXq+4/HY9WJte9TRw+MsFovLbrf7t99U9Nt46UJvvV5/tcH3IvRQc6vuDRKtr4WmSsFZewzq6OFxFHC1Uh/Wtse11KFXW58VA+N5LvWOPtaZm0tH1P3tS+XZnc8MdSSuAywNp/72GEYPj6O+Ul+qz/Txfr/velDV3xbfEXpJMDCe53LolZfIb53plb029lIohtHDj1Pw6dK6SgdgtW1w7WUub2a/1MTAeN5Q3bscrqNtV209HkMPj9e/pK75pisUtW1xjdBLgoHxvFu12WyqjxFCb1r08Hi195G5nD4OlzeTYGA8z+XLm+Ulo1s3BxB606KHH+c7h12Zb9abCqGXBAPjeS6HnozpI50FusrH4jn08HN0kOa6d+MVCL00GBjPczm4hs70fJecj6a1nS8z6c/y7k0FIpebHkMPj6MbVnzZXb1WXnHgTO++l3lPT5W5IRgYz7tV5ZGz3hfuLyvP9vrFv9N7DD08Tu39PJXCUCFYewz+Shd65e3m/SL0UFMbIgqs/k0sp9OpW9e/lKmPdVZXnvXp43v/sB3X6OFx1FdlvynsdGWCwBsnXei9KgbGvHwFgUuW86GH0QKhlwQDY14KOy4fzYseRguEXhIMDERHD6MFQi8JBgaio4fRAqGXBAMD0dHDaIHQS4KBgejoYbRA6CXBwEB09DBaIPSSYGAgOnoYLRB6STAwEB09jBYIvSQYGIiOHkYLhF4SDAxERw+jBUIvCQYGoqOH0cJb9x8KUuFLA4OiIhc9TLWoP3321jUbAADp1U7/EI92Zm05EAU9jBYIvSQYGIiOHkYLhF4SDAxERw+jBUIvCQYGoqOH0QKhlwQDA9HRw2iB0EuCgYHo6GG0QOglwcBAdPQwWiD0kmBgIDp6GC0QekkwMBAdPYwWCL0kGBiIjh5GCylD7/Pz8+t/Wbuu9Xpd3T4DBsY8VqvVV/d8r+12W30MnkMPjzM031TH47H6GPyVMvSGitDDo9QzQ0XoTYseHofQ+5nUoZc55PoYGPMoQ6+2HtOhh5+zWCz+DcLNZlPdBn8RekkwMOZB6LVDDz9nt9t1/Xk+n6vrcY3QS4KBMY8y9Mr6+Piobo/n0cOPK8/yFH61bXDtpd7TWy6X1e0zYGDMg9Brhx5+nM/yFHwKwNo2uEboJcHAmAeXN9uhhx/ns7z9fl9dj++4vJkEA2MehF479PBjdNOKK/MB/dQIvSQYGPMg9Nqhhx+jG1dUh8Ohuh51hF4SDIx5lKHXL/6d3rTo4fHKs7xXmnNTSBl6vs5N6OGn+B9Z2qGHxzudTl0PckPV41KG3itiYCA6ehgtEHpJMDAQHT2MFgi9JBgYiI4eRguEXhIMDERHD6MFQi8JBgaio4fRAqGXBAMD0dHDaIHQS4KBgejoYbTwp8/eumYDACC9WhIiHu3M2nIgCnoYLRB6STAwEB09jBYIvSQYGIiOHkYLhF4SDAxERw+jBUIvCQYGoqOH0QKhlwQDA9HRw2iB0EuCgYHo6GG0QOglwcBAdPQwWiD0kmBgIDp6GC0QekkwMBAdPYwWUobeZrO5HI/H7tfpu/Rr9Xe73WWxWFQfEx0DYz6fn59fXXRd6/W6uj2eQw+PoxmmWXY+n7868dLNu9VqVd0e19KFXj/s+pV1UDEw5jNUhN606OFxhmacDs5q2+NaqtDb7/dfu//SHQktl8tuuY6M3t/fu7M9Qg+PchFy86KHx1HolVetyrnX3xbfpQk9NYBLDVHbJjMGxnxchN686OHHae4dDoeuP3W5s7YNrqUJPQ0kl4+AXgkDYz4uQm9e9PB4/feZdRXLV7ZwW8rQ87Ltdvu15G9lfbOXgTGfoWLITIseHq92c5Uue9a2xbXUZ3q10Mt6tM7AmM9QEXrToocfpx705U2VZl5tO/yVJvS08121He8i9PAoF5c350UPP+fV72d4VJrQk/KIp7x7swxEQg+PchF686KHx9ENK/q3yPq7Ak+zzsWZ3n2pQk8NcDqdvnZ/vQg9PMpF6M2LHh5n6D9LUBi+4k18j0oVeqajHd3NVJY+1r9nydoUDIz5eMgQevOih8fRzXi6acV9qbDTVS4Cb5yUofeKGBiIjh5GC4ReEgwMREcPowVCLwkGBqKjh9ECoZcEAwPR0cNogdBLgoGB6OhhtEDoJcHAQHT0MFog9JJgYCA6ehgt/Omzt67ZAABIr5aEiEc7s7YciIIeRguEXhIMDERHD6MFQi8JBgaio4fRAqGXBAMD0dHDaIHQS4KBgejoYbRA6CXBwEB09DBaIPSSYGAgOnoYLRB6STAwEB09jBYIvSQYGIiOHkYLhF4SDAxERw+jhVSht91uu1+f//Hx8W2df7W+tumvy4CBMZ/NZnM5Ho9d/7jUY7vd7rJYLKqPwePo4ceo/87n81dHXroepR/vSxV6agJVLfRc2qa/LgMGxjz6Ydev9XpdfRweRw+PdzqdvjrwuujH+wi9JBgY09vv919d80/fLJfLbrmOpt/f37s+Y8hMhx4eR1ceVLp6pT70cvUiZ3r3EXpJMDCmpeHhytozvw09PI7mmyrrWzVzSxl6t4rQwxg6anZx9NwGPTyO70/QpXe/p6dlujJR2x7XCL0kGBjTKkPPy3yjVFmr1erqcXgePTzOreKqxH1c3kyCgTGt2pleLfR4T2869PA4Ls0y96ZvuKrNPlwj9JJgYExLN624au+duAi96dDD4/jypm5o8bJbsw/XCL0kGBjTOxwOX13zT9/47s0yEAm96dDD45RndTrTE/1dpXW1x+AvQi8JBsb0NEyG/j2Ui9CbDj08jv6ZQq10Bsh7zPelCj2/51ILPV8SyHqbLwNjPuoZH0m79LHulvN7Kvg5eng8BV95QKYzPAJvnFSh98oYGIiOHkYLhF4SDAxERw+jBUIvCQYGoqOH0QKhlwQDA9HRw2iB0EuCgYHo6GG0QOglwcBAdPQwWiD0kmBgIDp6GC386bO3rtkAAEivloSIRzuzthyIgh5GC4ReEgwMREcPowVCLwkGBqKjh9ECoZcEAwPR0cNogdBLgoGB6OhhtEDoJcHAQHT0MFog9JJgYCA6ehgtEHpJMDAQHT2MFgi9JBgYiI4eRguEXhIMDERHD6OF1KH3+fnZ/Sr99XpdXZ8JA2N62+2265+Pj49v69xb2qa/Ds+hh4ctFovLbrfrek61Wq2+bfP+/n45nU5fW/zTt7XtXl3q0HMReniGh0wt9Fzapr8Oz6GH6xRmPshy9WeatqmVHrdcLq+2fXWEXhIMjOkRem3Rw3XqP9lsNl9d932m+QzveDx2Z4UKOgflfr+/2vbVEXpJMDCmR+i1RQ/fpjnmKmeaQs5VLj8cDt2yWv++MkIvCQbG9Bx6t4rQmw49fNtQ6JXLy+1vHbS9MkIvCQbG9Ai9tujh2wi9aRB6STAwpndraLgIvenQw7cRetMg9JJgYEyP0GuLHr5tKPR004qrXK4bWFSE3jVCLwkGxvQIvbbo4duGQk/O53O3XHdv6mP9+zz+LWkdoZcEA2N6hF5b9HCd+7BWnm1D2ygMdXdn/zlfWerQ85EOoYdn8D+ytEUP140JPW/nMz6Vzvr4h+nfpQ69V8LAQHT0MFog9JJgYCA6ehgtEHpJMDAQHT2MFgi9JBgYiI4eRguEXhIMDERHD6MFQi8JBgaio4fRAqGXBAMD0dHDaIHQS4KBgejoYbRA6CXBwEB09DBa+NNnb12zAQCQXi0JEY92Zm05EAU9jBYIvSQYGIiOHkYLhF4SDAxERw+jBUIvCQYGoqOH0QKhlwQDA9HRw2iB0EuCgYHo6GG0QOglwcBAdPQwWiD0kmBgIDp6GC0QekkwMBAdPYwWCL0kGBiIjh5GC6lDb7fbXVTH47G6PhMGxnw2m03XQ2V9fHx0/bVYLKqPwePo4fHUe+fz+asb/5lxq9Wqui2uvUToaUDV1mfCwJhHP+z6tV6vq4/D4+jhcfb7/Vf3Xdfn5ycHYSMQekkwMKZXDhf10nK57JZrsLy/v3d9RehNhx4ex6We1Mc6w3PpqkR/e1wj9JJgYExLwebycMG86OH7dJDlKpdrxql0oFYux3eEXhIMjGmVw4VLRm3Qw/fpaoNru93+u+x0OnXLXmHW/RShlwQDY1q1I2oNmX5x88B06OFxyhtY+kXo3UfoJcHAmFbtTK8WerynNx16eBwdaJU3WOksTzNOxeXN+wi9JBgY06pdRiq5CL3p0MPP8+XNWq/iWurQ89EPoYdnHA6Hrn9UOoDy3ZtlIBJ606GHx1HP+bK6rkL44J5/sjBOytDTzi/rFY5+GBjT0wDxEfRQEXrToYfH8cF8v/jnCuOkDz0drb/C0Q8DYz46aOoPGn2s9084sp4OPTyOwq3/v7Ho343WtsV3qS9vvhIGBqKjh9ECoZcEAwPR0cNogdBLgoGB6OhhtEDoJcHAQHT0MFog9JJgYCA6ehgtEHpJMDAQHT2MFgi9JBgYiI4exvz+d/k/6W0krjcrhdAAAAAASUVORK5CYII=&quot;&gt;" style="text;html=1;align=center;verticalAlign=middle;resizable=0;points=[];autosize=1;strokeColor=none;fillColor=none;" vertex="1" parent="1">
          <mxGeometry x="90" y="50" width="470" height="370" as="geometry" />
        </mxCell>
        <mxCell id="1w4AGiLb3TfyN5ArjQR6-10" value="" style="align=left;strokeColor=#CCCCCC;html=1;container=0;" vertex="1" parent="1">
          <mxGeometry x="450" y="550" width="840" height="20" as="geometry" />
        </mxCell>
        <mxCell id="1w4AGiLb3TfyN5ArjQR6-11" value="5" style="strokeWidth=1;fontStyle=0;html=1;container=0;align=right;" vertex="1" parent="1">
          <mxGeometry x="450" y="510" width="70" height="20" as="geometry" />
        </mxCell>
        <mxCell id="1w4AGiLb3TfyN5ArjQR6-12" value="10" style="strokeWidth=1;fontStyle=0;html=1;container=0;align=right;" vertex="1" parent="1">
          <mxGeometry x="520" y="510" width="70" height="20" as="geometry" />
        </mxCell>
        <mxCell id="1w4AGiLb3TfyN5ArjQR6-13" value="15" style="strokeWidth=1;fontStyle=0;html=1;container=0;align=right;" vertex="1" parent="1">
          <mxGeometry x="590" y="510" width="70" height="20" as="geometry" />
        </mxCell>
        <mxCell id="1w4AGiLb3TfyN5ArjQR6-14" value="20" style="strokeWidth=1;fontStyle=0;html=1;container=0;align=right;" vertex="1" parent="1">
          <mxGeometry x="660" y="510" width="70" height="20" as="geometry" />
        </mxCell>
        <mxCell id="1w4AGiLb3TfyN5ArjQR6-15" value="25" style="strokeWidth=1;fontStyle=0;html=1;container=0;align=right;" vertex="1" parent="1">
          <mxGeometry x="730" y="510" width="70" height="20" as="geometry" />
        </mxCell>
        <mxCell id="1w4AGiLb3TfyN5ArjQR6-16" value="30" style="strokeWidth=1;fontStyle=0;html=1;container=0;align=right;" vertex="1" parent="1">
          <mxGeometry x="800" y="510" width="70" height="20" as="geometry" />
        </mxCell>
        <mxCell id="1w4AGiLb3TfyN5ArjQR6-17" value="35" style="strokeWidth=1;fontStyle=0;html=1;container=0;align=right;" vertex="1" parent="1">
          <mxGeometry x="870" y="510" width="70" height="20" as="geometry" />
        </mxCell>
        <mxCell id="1w4AGiLb3TfyN5ArjQR6-18" value="40" style="strokeWidth=1;fontStyle=0;html=1;container=0;align=right;" vertex="1" parent="1">
          <mxGeometry x="940" y="510" width="70" height="20" as="geometry" />
        </mxCell>
        <mxCell id="1w4AGiLb3TfyN5ArjQR6-19" value="45" style="strokeWidth=1;fontStyle=0;html=1;container=0;align=right;" vertex="1" parent="1">
          <mxGeometry x="1010" y="510" width="70" height="20" as="geometry" />
        </mxCell>
        <mxCell id="1w4AGiLb3TfyN5ArjQR6-20" value="50" style="strokeWidth=1;fontStyle=0;html=1;container=0;" vertex="1" parent="1">
          <mxGeometry x="1080" y="510" width="70" height="20" as="geometry" />
        </mxCell>
        <mxCell id="1w4AGiLb3TfyN5ArjQR6-21" value="Nov" style="strokeWidth=1;fontStyle=0;html=1;container=0;" vertex="1" parent="1">
          <mxGeometry x="1150" y="510" width="70" height="20" as="geometry" />
        </mxCell>
        <mxCell id="1w4AGiLb3TfyN5ArjQR6-22" value="Dec" style="strokeWidth=1;fontStyle=0;html=1;container=0;" vertex="1" parent="1">
          <mxGeometry x="1220" y="510" width="70" height="20" as="geometry" />
        </mxCell>
        <mxCell id="1w4AGiLb3TfyN5ArjQR6-23" value="" style="align=left;strokeColor=#CCCCCC;html=1;container=0;" vertex="1" parent="1">
          <mxGeometry x="450" y="570" width="840" height="20" as="geometry" />
        </mxCell>
        <mxCell id="1w4AGiLb3TfyN5ArjQR6-24" value="" style="align=left;strokeColor=#CCCCCC;html=1;container=0;" vertex="1" parent="1">
          <mxGeometry x="450" y="590" width="840" height="20" as="geometry" />
        </mxCell>
        <mxCell id="1w4AGiLb3TfyN5ArjQR6-25" value="" style="align=left;strokeColor=#CCCCCC;html=1;container=0;" vertex="1" parent="1">
          <mxGeometry x="450" y="610" width="840" height="20" as="geometry" />
        </mxCell>
        <mxCell id="1w4AGiLb3TfyN5ArjQR6-26" value="" style="align=left;strokeColor=#CCCCCC;html=1;container=0;" vertex="1" parent="1">
          <mxGeometry x="450" y="630" width="840" height="20" as="geometry" />
        </mxCell>
        <mxCell id="1w4AGiLb3TfyN5ArjQR6-27" value="" style="align=left;strokeColor=#CCCCCC;html=1;container=0;" vertex="1" parent="1">
          <mxGeometry x="450" y="650" width="840" height="20" as="geometry" />
        </mxCell>
        <mxCell id="1w4AGiLb3TfyN5ArjQR6-28" value="" style="align=left;strokeColor=#CCCCCC;html=1;container=0;" vertex="1" parent="1">
          <mxGeometry x="450" y="670" width="840" height="20" as="geometry" />
        </mxCell>
        <mxCell id="1w4AGiLb3TfyN5ArjQR6-29" value="" style="align=left;strokeColor=#CCCCCC;html=1;container=0;" vertex="1" parent="1">
          <mxGeometry x="450" y="690" width="840" height="20" as="geometry" />
        </mxCell>
        <mxCell id="1w4AGiLb3TfyN5ArjQR6-31" value="" style="whiteSpace=wrap;html=1;strokeWidth=2;fillColor=#CCCCCC;gradientColor=none;fontSize=14;align=center;strokeColor=#999999;container=0;" vertex="1" parent="1">
          <mxGeometry x="510" y="690" width="190" height="20" as="geometry" />
        </mxCell>
        <mxCell id="1w4AGiLb3TfyN5ArjQR6-32" value="" style="whiteSpace=wrap;html=1;strokeWidth=2;fillColor=#CCCCCC;gradientColor=none;fontSize=14;align=center;strokeColor=#999999;container=0;" vertex="1" parent="1">
          <mxGeometry x="510" y="670" width="110" height="20" as="geometry" />
        </mxCell>
        <mxCell id="1w4AGiLb3TfyN5ArjQR6-33" value="" style="whiteSpace=wrap;html=1;strokeWidth=2;fillColor=#CCCCCC;gradientColor=none;fontSize=14;align=center;strokeColor=#999999;container=0;" vertex="1" parent="1">
          <mxGeometry x="510" y="650" width="140" height="20" as="geometry" />
        </mxCell>
        <mxCell id="1w4AGiLb3TfyN5ArjQR6-34" value="" style="whiteSpace=wrap;html=1;strokeWidth=2;fillColor=#CCCCCC;gradientColor=none;fontSize=14;align=center;strokeColor=#999999;container=0;" vertex="1" parent="1">
          <mxGeometry x="740" y="610" width="90" height="20" as="geometry" />
        </mxCell>
        <mxCell id="1w4AGiLb3TfyN5ArjQR6-35" value="" style="whiteSpace=wrap;html=1;strokeWidth=2;fillColor=#CCCCCC;gradientColor=none;fontSize=14;align=center;strokeColor=#999999;container=0;" vertex="1" parent="1">
          <mxGeometry x="830" y="590" width="50" height="20" as="geometry" />
        </mxCell>
        <mxCell id="1w4AGiLb3TfyN5ArjQR6-36" value="" style="whiteSpace=wrap;html=1;strokeWidth=2;fillColor=#CCCCCC;gradientColor=none;fontSize=14;align=center;strokeColor=#999999;container=0;" vertex="1" parent="1">
          <mxGeometry x="960" y="550" width="140" height="20" as="geometry" />
        </mxCell>
        <mxCell id="1w4AGiLb3TfyN5ArjQR6-38" value="" style="align=left;strokeColor=#CCCCCC;html=1;container=0;" vertex="1" parent="1">
          <mxGeometry x="450" y="710" width="840" height="20" as="geometry" />
        </mxCell>
        <mxCell id="WK32EQev9AKKKaW4LnYa-4" value="" style="whiteSpace=wrap;html=1;strokeWidth=2;fillColor=#CCCCCC;gradientColor=none;fontSize=14;align=center;strokeColor=#999999;container=0;" vertex="1" parent="1">
          <mxGeometry x="880" y="570" width="80" height="20" as="geometry" />
        </mxCell>
        <mxCell id="WK32EQev9AKKKaW4LnYa-5" value="" style="whiteSpace=wrap;html=1;strokeWidth=2;fillColor=#CCCCCC;gradientColor=none;fontSize=14;align=center;strokeColor=#999999;container=0;" vertex="1" parent="1">
          <mxGeometry x="450" y="710" width="60" height="20" as="geometry" />
        </mxCell>
        <mxCell id="WK32EQev9AKKKaW4LnYa-8" value="" style="whiteSpace=wrap;html=1;strokeWidth=2;fillColor=#CCCCCC;gradientColor=none;fontSize=14;align=center;strokeColor=#999999;container=0;" vertex="1" parent="1">
          <mxGeometry x="700" y="630" width="40" height="20" as="geometry" />
        </mxCell>
        <mxCell id="WK32EQev9AKKKaW4LnYa-9" value="J" style="align=center;strokeColor=#CCCCCC;html=1;" vertex="1" parent="1">
          <mxGeometry x="290.00000000000017" y="529.9999999999998" width="159.99999999999977" height="19.999999999999957" as="geometry" />
        </mxCell>
        <mxCell id="WK32EQev9AKKKaW4LnYa-10" value="" style="align=left;strokeColor=#CCCCCC;html=1;container=0;" vertex="1" parent="1">
          <mxGeometry x="450" y="530" width="840" height="20" as="geometry" />
        </mxCell>
        <mxCell id="1w4AGiLb3TfyN5ArjQR6-37" value="" style="whiteSpace=wrap;html=1;strokeWidth=2;fillColor=#CCCCCC;gradientColor=none;fontSize=14;align=center;strokeColor=#999999;container=0;" vertex="1" parent="1">
          <mxGeometry x="880" y="530" width="130" height="20" as="geometry" />
        </mxCell>
      </root>
    </mxGraphModel>
  </diagram>
</mxfile>
